<?xml version="1.0" encoding="utf-8"?>
<!-- Generator: Adobe Illustrator 16.0.4, SVG Export Plug-In . SVG Version: 6.00 Build 0)  -->
<!DOCTYPE svg PUBLIC "-//W3C//DTD SVG 1.1//EN" "http://www.w3.org/Graphics/SVG/1.1/DTD/svg11.dtd">
<svg version="1.1" id="boron" xmlns="http://www.w3.org/2000/svg" xmlns:xlink="http://www.w3.org/1999/xlink" x="0px" y="0px"
	 width="52.004px" height="52px" viewBox="0 0 52.004 52" enable-background="new 0 0 52.004 52" xml:space="preserve">
<g>
	<g>
		<path fill="#FFFFFF" d="M27.452,28.42c0.07-0.045,0.142-0.088,0.214-0.132c-0.065-0.02-0.131-0.037-0.196-0.057
			C27.465,28.294,27.466,28.356,27.452,28.42z M46.922,19.772c-0.156-1.29-0.529-2.554-1.037-3.765
			c-0.406-0.966-0.902-1.896-1.457-2.792C38.312,3.338,27.253,2.007,20.735,6.341c-5.718,3.803-6.498,9.342-4.395,13.512
			c0.551,0.001,1.104,0.052,1.647,0.161c1.718,0.341,3.37,1.008,4.827,1.981c1.178,0.786,2.213,1.771,3.068,2.889
			c-1.657-2.994-2.949-7.251,2.689-7.773c6.238-0.579,9.62,5.27,8.686,7.111c-0.56,1.102-2.344,1.785-4.367,2.339
			c0.022-0.006,0.045-0.012,0.066-0.018c0.656-0.042,1.316-0.047,1.977,0.029c2.117,0.235,4.304,0.886,5.877,2.386
			c0.221,0.211,0.42,0.435,0.605,0.667c0.645-0.139,1.228-0.391,1.771-0.778c0.538-0.385,1.023-0.84,1.456-1.335
			c0.523-0.599,0.97-1.26,1.328-1.969c0.412-0.815,0.705-1.688,0.868-2.587C47.033,21.912,47.051,20.836,46.922,19.772z
			 M24.227,30.678c0.584-0.535,1.218-1.02,1.887-1.452c0.015-0.063,0.014-0.126,0.019-0.189c0.041-0.481-0.159-0.955-0.369-1.397
			c-0.36-0.515-0.799-1.191-1.218-1.947c0,0-0.001-0.001-0.001-0.001c-0.855-1.117-1.891-2.104-3.068-2.89
			c-1.457-0.973-3.109-1.641-4.827-1.98c-0.544-0.109-1.097-0.16-1.647-0.161c-0.679-0.002-1.355,0.078-2.004,0.278
			c-2.056,0.635-3.533,2.276-4.491,4.096c-0.176,0.337-0.341,0.682-0.492,1.032c-0.544,1.267-0.875,2.598-0.981,3.943
			c-0.163,2.072,0.206,4.181,1.147,6.142c1.068,2.229,2.936,3.955,5.287,4.854c1.046,0.398,2.175,0.466,3.243,0.187
			c0.438-0.115,0.853-0.291,1.253-0.495c0.033-0.141,0.065-0.283,0.116-0.417c0.312-0.843,0.671-1.667,1.065-2.476
			c0.592-1.224,1.265-2.41,2.03-3.536C22.057,32.97,23.064,31.744,24.227,30.678z M41.074,30.014
			c-1.574-1.499-3.761-2.15-5.877-2.387c-0.66-0.076-1.32-0.072-1.977-0.028c-0.022,0.005-0.045,0.011-0.066,0.017
			c-0.643,0.176-1.306,0.34-1.965,0.498c-0.621,0.149-1.238,0.297-1.823,0.446c-0.499,0.228-0.976,0.496-1.438,0.784
			c-0.071,0.043-0.144,0.086-0.214,0.131c-0.669,0.434-1.303,0.917-1.887,1.453c-1.162,1.065-2.169,2.292-3.05,3.589
			c-0.766,1.126-1.438,2.312-2.03,3.536c-0.394,0.809-0.752,1.632-1.064,2.476c-0.051,0.134-0.083,0.276-0.116,0.417
			c-0.012,0.053-0.033,0.102-0.043,0.154c-0.207,1.06-0.013,2.299,0.314,3.297c0.445,1.357,1.334,2.527,2.512,3.38
			c1.679,1.22,3.766,1.795,5.792,2.095c3.073,0.453,6.101-0.341,8.614-2.003c2.016-1.334,3.729-3.146,4.99-5.18
			c1.217-1.963,1.668-4.392,1.634-6.702c-0.028-1.877-0.5-3.799-1.698-5.306C41.494,30.448,41.295,30.225,41.074,30.014z"/>
	</g>
</g>
</svg>
