<?xml version="1.0" encoding="utf-8"?>
<!-- Generator: Adobe Illustrator 16.0.4, SVG Export Plug-In . SVG Version: 6.00 Build 0)  -->
<!DOCTYPE svg PUBLIC "-//W3C//DTD SVG 1.1//EN" "http://www.w3.org/Graphics/SVG/1.1/DTD/svg11.dtd">
<svg version="1.1" id="leafGas" xmlns="http://www.w3.org/2000/svg" xmlns:xlink="http://www.w3.org/1999/xlink" x="0px" y="0px"
	 width="52.004px" height="52px" viewBox="0 0 52.004 52" enable-background="new 0 0 52.004 52" xml:space="preserve">
<path fill="#FFFFFF" d="M7.188,34.075c0.072-0.135,0.148-0.271,0.229-0.405c0.313-0.542,0.686-1.079,1.113-1.594
	c0.85-1.035,1.935-1.942,3.112-2.696c1.183-0.747,2.465-1.33,3.755-1.825c1.292-0.499,2.607-0.895,3.901-1.282
	c1.294-0.39,2.579-0.739,3.817-1.13c1.242-0.379,2.442-0.783,3.579-1.229c1.137-0.442,2.209-0.929,3.193-1.45
	c0.984-0.524,1.884-1.079,2.683-1.644c0.399-0.282,0.776-0.565,1.126-0.844l-3.023-2.664l8.126-2.146l-1.142,8.298l-3.117-2.745
	c-0.34,0.372-0.709,0.753-1.119,1.136c-0.758,0.709-1.633,1.423-2.614,2.102c-0.978,0.688-2.069,1.317-3.22,1.918
	c-1.156,0.587-2.378,1.131-3.625,1.634c-1.249,0.497-2.517,0.973-3.769,1.432c-1.251,0.46-2.474,0.937-3.625,1.441
	c-1.152,0.505-2.21,1.078-3.133,1.705c-0.265,0.185-0.517,0.376-0.757,0.571c-0.138,0.082-0.275,0.165-0.411,0.25
	c-1.177,0.754-2.261,1.662-3.111,2.697c-0.427,0.514-0.8,1.051-1.113,1.593c-0.323,0.539-0.576,1.086-0.802,1.613
	c-0.436,1.062-0.696,2.062-0.866,2.945c-0.17,0.886-0.246,1.653-0.302,2.283c-0.044,0.629-0.067,1.121-0.069,1.455
	c-0.003,0.167-0.006,0.296-0.007,0.382c0.005,0.021-0.015,0.04,0.012,0.057c0.049,0.017,0.274,0.03,0.544,0.042
	c0.137,0.005,0.256,0.009,0.359,0.013c0.162,0.005,0.297,0.009,0.405,0.011c0.216,0.005,0.325,0.008,0.325,0.008
	c0.07,0.002,0.158,0.002,0.229,0h0.004c0,0,0.109-0.002,0.325-0.008c0.108-0.002,0.244-0.006,0.405-0.009
	c0.103-0.004,0.223-0.009,0.359-0.014c0.271-0.01,0.497-0.021,0.546-0.034c0.028-0.014,0.008-0.031,0.015-0.05
	c0.001-0.075,0.002-0.188,0.004-0.334c0-0.294,0.017-0.72,0.05-1.257c0.043-0.535,0.103-1.184,0.236-1.901
	c0.136-0.716,0.33-1.505,0.635-2.31c0.162-0.396,0.338-0.806,0.564-1.2c0.015-0.026,0.03-0.054,0.046-0.08
	c32.846,10.505,35.946-34.81,35.946-34.81C42.963,16.547,8.729,8.029,7.188,34.075z"/>
</svg>
