<?xml version="1.0" encoding="utf-8"?>
<!-- Generator: Adobe Illustrator 16.0.4, SVG Export Plug-In . SVG Version: 6.00 Build 0)  -->
<!DOCTYPE svg PUBLIC "-//W3C//DTD SVG 1.1//EN" "http://www.w3.org/Graphics/SVG/1.1/DTD/svg11.dtd">
<svg version="1.1" id="liverworts" xmlns="http://www.w3.org/2000/svg" xmlns:xlink="http://www.w3.org/1999/xlink" x="0px" y="0px"
	 width="52.004px" height="52px" viewBox="0 0 52.004 52" enable-background="new 0 0 52.004 52" xml:space="preserve">
<g>
	<g>
		<path fill-rule="evenodd" clip-rule="evenodd" fill="#FFFFFF" d="M51.748,21.938c0.077-0.206,0.135-0.418,0.152-0.645
			c0.067-0.874,0.27-1.801-0.18-2.543c-0.307-0.267-0.572-0.269-0.836-0.263c-0.262,0.006-0.524,0.024-0.752,0.036
			c-1.941,1.533-1.941,1.533-3.67,1.088c-0.303,0.187-0.697,0.439-1.181,0.53c-1.741,0.329-3.089,1.385-4.263,2.808
			c-0.744,0.902-1.551,1.747-2.631,2.261c-0.734,0.35-1.413,0.859-1.934,1.626c-0.742,1.094-1.915,1.452-3.091,1.681
			c-0.386,0.074-0.766,0.1-1.142,0.271c-1.09,0.495-2.229,0.344-3.356,0.184c-0.163-0.023-0.278-0.217-0.27-0.436
			c0.511-0.387,0.638-0.482,0.97-0.517c0.111-0.012,0.244-0.017,0.422-0.022c0.521-0.018,1.028-0.006,1.543-0.244
			c2.242-1.037,3.738-3.032,5.315-4.9c0.546-0.646,1.007-1.385,1.606-1.994c0.378-0.384,0.81-0.764,1.045-1.247
			c0.652-1.338,1.73-2.242,2.712-3.222c0.574-0.574,1.179-1.103,1.573-1.743c1.181-0.49,2.265-1,3.322-1.051
			c0.318-0.312,0.522-0.576,0.778-0.744c0.285-0.187,0.423-0.479,0.59-0.75c0.524-0.846,0.463-1.533-0.319-2.074
			c-0.619-0.427-1.029-1-1.447-1.616c-0.058-0.084-0.106-0.177-0.154-0.271c-0.143-0.282-0.271-0.58-0.56-0.734
			c-0.61-0.114-0.984-0.168-1.28-0.157c-0.295,0.012-0.512,0.089-0.809,0.237c-0.198,0.099-0.431,0.229-0.746,0.392
			c-1.175,0.607-2.088,1.448-2.896,2.508c-0.303,0.396-0.697,0.718-1.08,1.029c-0.301,0.244-0.634,0.281-1.001-0.233
			c1.42-1.49,2.168-3.566,3.685-4.945c0.086-1.959-0.252-2.289-1.928-1.866c-0.58,0.146-1.02-0.011-1.374-0.464
			c-0.085-0.751,0.057-1.477-0.136-2.187c-0.846-0.604-1.679-0.579-2.49-0.036c-1.136,0.76-1.797,1.874-1.928,3.33
			c-0.051,0.565,0.05,1.147-0.238,1.676c-0.408,0.75-0.39,1.591-0.223,2.373c0.646,3.022-0.204,5.931-0.496,8.879
			c-0.039,0.4-0.268,0.784-0.453,1.167c-0.467,0.964-0.889,1.949-1.481,2.838c-0.305,0.457-0.292,1.093-0.722,1.501
			c-0.817,0.775-1.65,1.524-2.581,2.135c-0.044,0.028-0.152-0.062-0.304-0.128c-0.304-1.823,0.079-3.678,0.373-5.452
			c0.375-2.261,0.186-4.553,0.621-6.792c0.115-0.593,0.176-1.159,0.386-1.755c0.511-1.456,1.356-2.715,1.808-4.218
			c0.428-1.421,0.611-2.966,1.43-4.25c0.157-0.248,0.088-0.652-0.079-1.074c-0.466-0.287-0.729-0.925-1.207-1.331
			c-2.001-0.32-2.546,1.857-3.941,2.689c-0.253,0-0.559,0.008-0.865-0.003c-0.171-0.006-0.341-0.043-0.538-0.069
			c-0.19-0.432-0.431-0.832-0.549-1.271c-0.357-1.33-0.902-1.826-2.155-1.871C22.41,0.047,22.027,0.02,21.674,0
			c-0.602,1.056-0.806,1.61-0.815,2.572c-0.022,2.149-0.01,4.299-0.016,6.449c0,0.338,0.147,0.669,0.142,0.978
			c-0.014,0.942,0.669,1.696,0.591,2.608c-0.127,1.492,0.485,2.897,0.351,4.381c-0.012,0.128,0.08,0.268,0.126,0.402
			c0.77,2.218,1.267,4.514,1.673,6.858c-0.29,0.438-0.114,1.175-0.844,1.389c-0.523-0.566-0.718-1.284-0.685-2.036
			c0.033-0.739-0.096-1.455-0.329-2.095c-0.359-0.985-0.35-2.201-1.303-2.865c-1.292-0.903-1.567-2.482-1.986-3.874
			c-0.227-0.753-0.309-1.659-0.398-2.509c-0.086-0.824-0.283-1.733-0.707-2.398c-1.032-1.62-0.654-3.271-0.043-4.747
			c0.521-1.256,0.527-2.3,0.093-3.492c-1.69-0.12-1.971,1.672-2.956,2.443c-0.524,0.19-1.028-0.083-1.452-0.118
			c-0.708,0.556-0.61,1.465-1.097,2.098c-0.585-0.223-1.151-0.72-2.073-0.233C9.881,5.89,9.649,6.172,9.36,6.523
			c0.417,0.786-0.423,1.283-0.427,2.095c-0.003,0.833,0.89,1.399,0.427,2.305c-0.417,0.097-0.751,0.414-1.225,0.687
			C6.26,11.28,4.67,11.827,3.782,14.013c0.37,0.411,0.492,0.946,0.443,1.542c-0.048,0.587,0.008,1.201,0.382,1.621
			c0.48,0.54,0.812,1.257,1.648,1.66c1.775-0.328,3.652,0.455,5.495,0.292c0.865,0.538,1.683,0.983,2.436,1.531
			c0.819,0.596,1.33,1.449,1.358,2.66c0.671,0.237,1.047,1.041,1.747,1.177c0.911,0.177,1.432,0.889,1.987,1.521
			c0.321,0.366,0.594,0.922,0.412,1.507c-1.893,0.517-3.435,0.047-4.534-1.625c-1.301,0.093-2.479,0.104-3.534-0.654
			c-0.385-0.276-0.859-0.108-1.29-0.167c-0.129-0.018-0.257-0.049-0.38-0.073c-0.319-0.264-0.629-0.521-0.951-0.789
			c-1.176,0.201-1.995-0.542-2.842-1.23c-0.89-0.723-1.83-1.296-3.087-0.963c-0.818,0.589-1.724,1.304-2.097,2.353
			c-0.636,1.789-1.274,3.636-0.819,5.681c0.357,0.811,1.587,0.173,1.876,1.27c-0.85,0.807-1.377,1.781-1.147,3.014
			c0.399,0.789,1.178,0.934,1.6,1.55c0.278-0.293,0.529-0.412,0.849-0.475c0.85-0.163,1.631-0.433,2.399-0.987
			c0.998-0.723,1.914-1.672,3.232-2.006c-0.151,0.661-0.614,0.93-0.995,1.29c-0.435,0.412-0.397,1.157-0.851,1.566
			c-0.966,0.87-1.607,2.125-2.783,2.753c-0.219,0.116-0.469,0.273-0.592,0.638c-0.049,0.643-0.059,1.353,0.054,2.068
			c1.231,1.298,2.835,2.077,3.869,3.543c0.571,0.021,1.097,0.175,1.718-0.218c0.176-0.701,0.396-1.354,0.748-1.964
			c0.617-1.07,0.931-2.31,1.195-3.506c0.281-1.267,0.847-1.912,1.955-2.354c0.943-0.377,1.903-0.943,2.331-2.111
			c0.204-0.559,0.609-0.896,1.143-1.066c0.878-0.279,1.685-0.77,2.519-1.16c0.812-0.381,1.764-0.497,2.435-1.271
			c0.134-0.156,0.557-0.519,0.898-0.123c-0.044,0.56-0.609,0.725-0.637,1.226c-0.556,1.548-0.099,3.183-0.389,4.772
			c-0.12,0.658-0.32,1.406-0.149,2.09c0.393,1.566-0.25,2.594-1.409,3.309c-0.86,0.53-1.726,1.058-2.715,1.329
			c-0.603,0.165-1.218,0.317-1.812,0.665c-0.451,0.264-0.946,0.646-1.538,0.707c-0.741,0.076-1.276,0.562-1.686,1.237
			c0.13,0.619,0.25,1.222,0.649,1.702c1.033,0.594,2.115,1.096,3.031,1.914c0.736,0.098,1.501-0.107,2.154,0.316
			c0.485-0.256,1.181-0.193,1.318-0.679c0.284-1.004,1.34-1.462,1.321-2.506c2.624-1.943,3.066-2.121,3.926-1.599
			c-0.127,0.479-0.497,0.906-0.796,1.068c-0.426,0.232-0.831,0.439-1.147,0.795c-0.274,1.23-1.207,2.287-0.688,3.712
			c1.725,0.323,3.089-0.313,4.22-1.658c0.348-0.413,0.678-0.837,1.393-0.571c-0.356,0.793-0.688,1.532-0.403,2.411
			c0.348,0.571,0.805,1.062,1.568,1.251c0.511-0.432,1.113-0.086,1.597-0.021c1.469-0.693,2.062-1.993,2.589-3.359
			c-0.525-1.168-0.939-2.357-1.813-3.243c-0.779-0.789-1.004-1.817-0.823-2.873c0.159-0.925-0.024-1.782-0.147-2.652
			c-0.071-0.499-0.141-1.112-0.539-1.428c-0.63-0.497-0.892-1.255-1.308-1.898c-0.849-1.312-1.097-2.944-1.891-4.306
			c-0.27-0.462,0.065-0.894,0.602-0.945c0.427,0.228,0.493,0.624,0.595,1.06c0.308,1.323,0.894,2.443,2.008,3.212
			c0.583,0.4,1.063,0.969,1.442,1.637c0.437,0.769,0.965,1.469,1.727,1.84c0.286,1.029,0.701,1.967,1.339,2.662
			c0.584,0.637,0.682,1.381,0.857,2.139c0.062,0.27,0.031,0.565,0.045,0.9c1.184,1.045,1.079,2.85,1.923,3.937
			c0.661,0.63,1.298,0.506,1.991,0.294c0.086-0.465,0.557-0.67,0.717-1.064c0.426-2.33,0.939-4.601,0.412-6.859
			c0.163-0.248,0.282-0.379,0.631-0.292c0.123,1.195,0.645,2.32,1.062,3.55c0.518-0.068,0.93,0.29,1.4,0.303
			c2.009-0.594,2.007-0.596,2.776-2.595c0.345-0.897,0.91-1.626,1.613-2.197c0.428-0.348,0.834-0.688,1.087-1.151
			c0.215-0.864-0.54-1.29-0.568-1.92c-0.465-0.326-0.932-0.136-1.336-0.415c-0.945-0.656-1.988-1.097-3.023-1.57
			c-0.768-0.351-1.484-0.479-2.266-0.468c-2.013,0.029-3.996-0.279-5.982-0.574c-0.678-0.102-1.339-0.548-1.997-0.107
			c-0.706-0.52-1.587-0.613-2.098-1.598c2.325,0,4.471,0.004,6.616-0.002c1.486-0.004,2.982-0.13,4.363,0.684
			c0.185,0.108,0.426,0.098,0.63,0.177c0.58,0.225,1.295,0.113,1.767,0.416c0.913,0.587,1.949,0.659,2.893,1.097
			c1.273,0.59,2.098,0.065,2.702-1.363c0.164-0.387,0.323-0.775,0.413-0.988c-0.049-1.27-0.639-1.918-1.467-2.381
			c-1.002-0.561-1.971-1.204-3.104-1.432c-0.336-0.067-0.68-0.138-0.888-0.719c0.779-0.13,1.563-0.291,2.198,0.056
			c1.186,0.649,2.388,0.409,3.648,0.423c0.295-0.281,0.487-0.556,0.602-0.825c0.496-1.167-0.467-2.241-0.824-3.344
			C51.093,23.109,51.514,22.555,51.748,21.938z"/>
	</g>
</g>
</svg>
