<?xml version="1.0" encoding="UTF-8" standalone="no"?>
<!-- Created with Inkscape (http://www.inkscape.org/) -->

<svg
   xmlns:dc="http://purl.org/dc/elements/1.1/"
   xmlns:cc="http://creativecommons.org/ns#"
   xmlns:rdf="http://www.w3.org/1999/02/22-rdf-syntax-ns#"
   xmlns:svg="http://www.w3.org/2000/svg"
   xmlns="http://www.w3.org/2000/svg"
   xmlns:sodipodi="http://sodipodi.sourceforge.net/DTD/sodipodi-0.dtd"
   xmlns:inkscape="http://www.inkscape.org/namespaces/inkscape"
   width="92.872276mm"
   height="92.872276mm"
   viewBox="0 0 92.872276 92.872276"
   version="1.1"
   id="svg8"
   inkscape:version="0.92.4 (5da689c313, 2019-01-14)"
   sodipodi:docname="Logo.svg">
  <defs
     id="defs2">
    <clipPath
       id="clipPath837"
       clipPathUnits="userSpaceOnUse">
      <path
         inkscape:connector-curvature="0"
         id="path835"
         d="M 2627.6,1316.3 C 2627.6,592.07 2040.5,5 1316.3,5 592.09,5 5,592.07 5,1316.3 c 0,724.21 587.09,1311.3 1311.3,1311.3 724.2,0 1311.3,-587.09 1311.3,-1311.3" />
    </clipPath>
  </defs>
  <sodipodi:namedview
     id="base"
     pagecolor="#ffffff"
     bordercolor="#666666"
     borderopacity="1.0"
     inkscape:pageopacity="0.0"
     inkscape:pageshadow="2"
     inkscape:zoom="0.35"
     inkscape:cx="-137.35049"
     inkscape:cy="-127.35048"
     inkscape:document-units="mm"
     inkscape:current-layer="layer1"
     showgrid="false"
     fit-margin-top="0"
     fit-margin-left="0"
     fit-margin-right="0"
     fit-margin-bottom="0"
     inkscape:window-width="1800"
     inkscape:window-height="1106"
     inkscape:window-x="-11"
     inkscape:window-y="-11"
     inkscape:window-maximized="1" />
  <metadata
     id="metadata5">
    <rdf:RDF>
      <cc:Work
         rdf:about="">
        <dc:format>image/svg+xml</dc:format>
        <dc:type
           rdf:resource="http://purl.org/dc/dcmitype/StillImage" />
        <dc:title></dc:title>
      </cc:Work>
    </rdf:RDF>
  </metadata>
  <g
     inkscape:label="Layer 1"
     inkscape:groupmode="layer"
     id="layer1"
     transform="translate(-2.70077,-22.266244)">
    <g
       transform="matrix(0.35277777,0,0,-0.35277777,2.70077,115.13852)"
       inkscape:label="ink_ext_XXXXXX"
       id="g823">
      <g
         transform="scale(0.1)"
         id="g825">
        <path
           inkscape:connector-curvature="0"
           id="path827"
           style="fill:#edf4fc;fill-opacity:1;fill-rule:nonzero;stroke:none"
           d="M 2627.6,1316.3 C 2627.6,592.07 2040.5,5 1316.3,5 592.09,5 5,592.07 5,1316.3 c 0,724.21 587.09,1311.3 1311.3,1311.3 724.2,0 1311.3,-587.09 1311.3,-1311.3" />
        <path
           inkscape:connector-curvature="0"
           id="path829"
           style="fill:#3f77ba;fill-opacity:1;fill-rule:nonzero;stroke:none"
           d="m 2627.6,1316.3 h -5 C 2622.59,955.551 2476.39,629 2239.99,392.602 2003.58,156.199 1677.03,10 1316.3,10 955.559,10 629.016,156.199 392.605,392.602 156.203,629 10.0039,955.551 10,1316.3 c 0.0039,360.74 146.203,687.28 382.605,923.69 236.411,236.4 562.954,382.61 923.695,382.61 360.73,0 687.28,-146.21 923.69,-382.61 236.4,-236.41 382.6,-562.95 382.61,-923.69 h 5 5 C 2632.59,2043.27 2043.26,2632.6 1316.3,2632.6 589.324,2632.6 0.00390625,2043.27 0,1316.3 0.00390625,589.309 589.324,0 1316.3,0 2043.26,0 2632.59,589.309 2632.6,1316.3 h -5" />
        <g
           id="g831">
          <g
             clip-path="url(#clipPath837)"
             id="g833">
            <path
               inkscape:connector-curvature="0"
               id="path839"
               style="fill:#bfb290;fill-opacity:1;fill-rule:nonzero;stroke:none"
               d="m 1790.21,964.059 c -1.06,0 -2.12,0 -3.17,0 -1.52,0 -3.03,0 -4.51,0 -1.07,0 -2.13,0.023 -3.18,0 l -2.06,-0.168 -0.84,-1.84 c -0.62,-1.582 -1.24,-3.192 -1.85,-4.77 -1.22,-3.179 -2.44,-6.351 -3.64,-9.551 -2.42,-6.398 -4.8,-12.839 -7.12,-19.289 -4.73,-13.031 -9.28,-26.152 -13.67,-39.3 -4.47,-13.379 -8.74,-26.821 -12.86,-40.309 -4.16,-13.711 -8.16,-27.5 -11.97,-41.312 -1.81,-6.579 -3.6,-13.188 -5.31,-19.778 C 1496.75,-63.3711 274.082,322.961 274.082,322.961 V -84.6406 H 2719.42 V 964.059 h -0.73 -2.18 c -1.19,0 -2.36,0 -3.55,0 -1.64,0 -3.26,0 -4.9,0 -2.07,0 -4.14,0 -6.2,0 -2.49,0 -4.97,0 -7.45,0 -2.85,0 -5.74,0 -8.62,0 -3.25,0 -6.51,0 -9.76,0 -3.63,0 -7.26,0 -10.9,0 -3.98,0 -7.95,0 -11.93,0 -4.31,0 -8.61,0 -12.92,0 -4.64,0 -9.28,0 -13.9,0 -4.93,0 -9.87,0 -14.8,0 -5.22,0 -10.44,0 -15.65,0 -5.5,0 -10.98,0 -16.47,0 -5.75,0 -11.49,0 -17.22,0 -6,0 -11.97,0 -17.94,0 -6.21,0 -12.43,0 -18.63,0 -6.4,0 -12.81,0 -19.21,0 -6.61,0 -13.22,0 -19.81,0 -6.78,0 -13.55,0 -20.31,0 -6.94,0 -13.87,0 -20.81,0 -7.06,0 -14.13,0 -21.23,0 -7.18,0 -14.4,0 -21.59,0 -7.31,0 -14.62,0 -21.94,0 -7.4,0 -14.79,0 -22.21,0 -7.46,0 -14.96,0 -22.42,0 -7.57,0 -15.1,0 -22.63,0 -7.6,0 -15.19,0 -22.77,0 -7.62,0 -15.26,0 -22.86,0 -7.65,0 -15.27,0 -22.89,0 -7.65,0 -15.27,0 -22.91,0 -7.6,0 -15.21,0 -22.83,0 -7.58,0 -15.16,0 -22.74,0 -7.53,0 -15.05,0 -22.58,0 -7.46,0 -14.9,0 -22.37,0 -7.39,0 -14.76,0 -22.14,0 -7.28,0 -14.56,0 -21.83,0 -7.18,0 -14.34,0 -21.51,0 -7.01,0 -14.06,0 -21.09,0 -6.89,0 -13.77,0 -20.66,0 -6.72,0 -13.44,0 -20.16,0 -6.56,0 -13.1,0 -19.64,0 -6.36,0 -12.7,0 -19.06,0 -6.14,0 -12.28,0 -18.43,0 -5.92,0 -11.82,0 -17.73,0 -5.67,0 -11.35,0 -17.02,0 -5.41,0 -10.82,0 -16.24,0 -5.12,0 -10.28,0 -15.4,0 -4.84,0 -9.68,0 -14.53,0 -4.55,0 -9.09,0 -13.63,0 -4.2,0 -8.42,0 -12.66,0 -3.86,0 -7.75,0 -11.62,0 -3.5,0 -7.01,0 -10.54,0 -3.15,0 -6.31,0 -9.46,0 -2.75,0 -5.52,0 -8.3,0 -2.35,0 -4.71,0 -7.06,0 h -2.64" />
            <path
               inkscape:connector-curvature="0"
               id="path841"
               style="fill:#9ea09d;fill-opacity:1;fill-rule:nonzero;stroke:none"
               d="m 1316.3,5 c -293.46,0 -564.402,96.391 -782.89,259.25 10.336,-1.711 20.887,-3.391 31.649,-5.008 100.179,-19.953 214.914,-24.422 297.64,-24.422 67.223,0 113.324,2.95 113.324,2.95 99.947,6.789 184.617,25.261 250.847,45.312 26.28,7.84 52.23,16.816 77.58,27 55.35,21.957 85.33,40.188 85.33,40.188 81.62,43 144.02,99.281 191.46,157.441 26.86,32.57 51.22,68.687 72.66,108.809 49.67,91.64 66.51,169.218 69.22,182.871 0.73,2.711 1.47,5.418 2.22,8.129 3.81,13.812 7.81,27.601 11.97,41.312 4.12,13.488 8.39,26.93 12.86,40.309 4.39,13.148 8.94,26.269 13.67,39.3 2.32,6.45 4.7,12.891 7.12,19.289 1.2,3.2 2.42,6.372 3.64,9.551 0.14,0.379 0.29,0.75 0.44,1.117 1.3,3.094 1.98,4.59 1.98,4.59 h -0.15 l 0.42,0.903 2.06,0.168 h 800.4 C 2425.89,410.879 1918.5,5 1316.3,5" />
            <path
               inkscape:connector-curvature="0"
               id="path843"
               style="fill:#bfb290;fill-opacity:1;fill-rule:nonzero;stroke:none"
               d="m 2719.42,964.059 v 907.571 c 0,0 -667.02,-200.17 -942.19,-907.571 h 942.19" />
          </g>
        </g>
        <path
           inkscape:connector-curvature="0"
           id="path845"
           style="fill:#a4c0db;fill-opacity:1;fill-rule:nonzero;stroke:none"
           d="m 865.199,235.48 c -107.633,0 -210.898,10.27 -300.14,23.762 -7.836,1.559 -15.555,3.207 -23.192,4.957 C 488.922,303.238 439.027,346.18 392.605,392.602 236.445,548.762 119.637,744.281 58.3359,962.988 H 1776.87 l -0.42,-0.937 c -0.47,-1.211 -0.94,-2.43 -1.41,-3.653 -6.04,-14.308 -25.35,-62.957 -51.51,-156.878 0,0 -0.13,-0.731 -0.41,-2.129 -1.05,-3.879 -2.08,-7.77 -3.09,-11.649 -16.74,-63.793 -39.1,-120.652 -66.13,-171.222 -19.04,-35.149 -42.9,-72.34 -72.66,-108.809 -75.96,-92.121 -171.76,-155.422 -276.79,-197.629 -21.96,-8.711 -47.93,-18.023 -77.58,-27 -117.18,-34.941 -242.143,-47.59 -361.671,-47.602" />
        <path
           inkscape:connector-curvature="0"
           id="path847"
           style="fill:#4a81ba;fill-opacity:1;fill-rule:nonzero;stroke:none"
           d="m 541.867,264.199 c -1.531,0.352 -3.066,0.711 -4.594,1.071 l -7.496,6.25 C 331.211,426.18 151.621,623.809 51.8594,962.988 h 6.4765 C 119.637,744.281 236.445,548.762 392.605,392.602 439.027,346.18 488.922,303.238 541.867,264.199" />
        <path
           inkscape:connector-curvature="0"
           id="path849"
           style="fill:#7d98ac;fill-opacity:1;fill-rule:nonzero;stroke:none"
           d="m 862.699,234.82 c -82.726,0 -197.461,4.469 -297.64,24.422 89.242,-13.492 192.507,-23.762 300.14,-23.762 119.528,0.012 244.491,12.661 361.671,47.602 -66.23,-20.051 -150.9,-38.523 -250.847,-45.312 0,0 -46.101,-2.95 -113.324,-2.95 m 441.751,75.262 c 105.03,42.207 200.83,105.508 276.79,197.629 -47.44,-58.16 -109.84,-114.441 -191.46,-157.441 0,0 -29.98,-18.231 -85.33,-40.188 M 1653.9,616.52 c 27.03,50.57 49.39,107.429 66.13,171.222 1.01,3.879 2.04,7.77 3.09,11.649 -2.71,-13.653 -19.55,-91.231 -69.22,-182.871 m 121.14,341.878 c 0.47,1.223 0.94,2.442 1.41,3.653 l 0.42,0.937 h 0.15 c 0,0 -0.68,-1.496 -1.98,-4.59" />
        <path
           inkscape:connector-curvature="0"
           id="path851"
           style="fill:#ffffff;fill-opacity:1;fill-rule:nonzero;stroke:none"
           d="m 915.152,575.98 c 0,0 -100.851,123.469 8.895,133.61 77.793,7.199 119.943,-65.551 108.293,-88.469 -12.84,-25.223 -77.336,-32.883 -117.188,-45.141 z m 236.638,60.891 c 2.41,12.988 2.64,26.391 1.04,39.609 -1.97,16.059 -6.6,31.782 -12.93,46.84 -5.08,12.012 -11.26,23.578 -18.17,34.719 C 1045.47,880.93 907.605,897.5 826.348,843.57 754.75,796.051 745.227,726.738 771.887,674.781 c 6.625,-12.91 15.015,-24.98 24.801,-35.922 9.511,-10.621 20.32,-20.129 31.968,-28.468 11.621,-8.34 24.086,-15.582 37.024,-21.789 12.933,-6.243 26.347,-11.5 39.996,-15.973 13.394,-4.367 27.066,-7.957 40.855,-10.887 13.11,-2.793 26.328,-4.98 39.617,-6.64 12.075,-1.512 24.162,-2.563 36.272,-3.172 10.28,-0.551 20.58,-0.758 30.85,-0.571 7.77,0.141 15.54,0.512 23.27,1.301 11.14,1.172 20.85,4.602 29.71,10.93 6.72,4.789 12.76,10.441 18.16,16.601 6.52,7.438 12.08,15.68 16.55,24.489 5.13,10.14 8.79,21.011 10.83,32.191" />
        <path
           inkscape:connector-curvature="0"
           id="path853"
           style="fill:#21418b;fill-opacity:1;fill-rule:nonzero;stroke:none"
           d="m 915.152,575.98 3.871,3.168 c 0,0 -0.609,0.743 -1.738,2.204 -3.945,5.089 -13.933,18.519 -22.844,34.75 -8.945,16.199 -16.648,35.296 -16.589,50.918 0.046,9.75 2.73,17.839 9.531,24.32 6.824,6.469 18.453,11.551 37.125,13.269 3.492,0.321 6.906,0.481 10.234,0.481 29.926,-0.008 53.516,-12.469 69.798,-28.238 8.12,-7.872 14.36,-16.571 18.52,-24.801 4.18,-8.211 6.22,-16 6.2,-21.699 0,-2.981 -0.55,-5.34 -1.38,-6.961 -2.43,-4.871 -7.97,-9.621 -15.99,-13.809 -11.976,-6.32 -29.019,-11.301 -46.745,-15.73 -17.75,-4.454 -36.196,-8.403 -51.461,-13.09 l 1.468,-4.782 3.871,3.168 -3.871,-3.168 1.469,-4.781 c 19.512,6.02 45.625,11.012 68.649,17.692 11.527,3.347 22.3,7.121 31.27,11.828 8.94,4.73 16.27,10.39 20.25,18.133 1.75,3.437 2.46,7.347 2.47,11.5 -0.03,7.929 -2.59,16.929 -7.27,26.218 -7.05,13.899 -18.99,28.43 -35.385,39.61 -16.382,11.172 -37.285,18.91 -61.863,18.91 -3.64,0 -7.359,-0.168 -11.156,-0.52 -19.996,-1.851 -33.969,-7.379 -43.07,-15.968 -9.129,-8.571 -12.707,-19.981 -12.664,-31.582 0.089,-21.391 11.113,-44.551 21.847,-62.79 10.781,-18.191 21.481,-31.281 21.578,-31.41 l 2.129,-2.601 3.215,0.98 z m 236.638,60.891 4.91,-0.91 c 1.46,7.84 2.15,15.809 2.15,23.777 0,5.793 -0.36,11.594 -1.06,17.344 -2.03,16.617 -6.81,32.777 -13.28,48.168 l -0.02,0.039 0.01,-0.027 c -5.19,12.297 -11.5,24.09 -18.52,35.418 -50.33,81.16 -127.476,117.109 -198.203,117.07 -38.289,0 -74.754,-10.48 -104.195,-30.008 -49.168,-32.562 -70.394,-75.961 -70.34,-117.344 0,-20.316 5.067,-40.109 14.196,-57.898 6.832,-13.309 15.468,-25.73 25.527,-36.969 9.777,-10.922 20.859,-20.672 32.781,-29.211 l -0.051,0.039 0.047,-0.027 c 11.883,-8.531 24.602,-15.91 37.774,-22.242 l -0.008,0.012 c 13.16,-6.352 26.781,-11.704 40.613,-16.223 13.586,-4.43 27.43,-8.07 41.371,-11.039 13.254,-2.809 26.617,-5.031 40.035,-6.711 12.2,-1.52 24.413,-2.578 36.643,-3.188 h 0.05 -0.06 c 7.85,-0.421 15.72,-0.652 23.59,-0.652 2.54,0 5.08,0.031 7.61,0.082 h 0.12 -0.13 c 7.88,0.129 15.79,0.508 23.7,1.32 h 0.01 c 11.84,1.219 22.53,4.981 32.1,11.829 h -0.01 c 7.08,5.039 13.4,10.972 19.02,17.378 6.8,7.762 12.59,16.332 17.25,25.524 5.35,10.566 9.16,21.898 11.29,33.558 l -0.01,-0.019 -4.91,0.91 -4.92,0.899 c -1.95,-10.711 -5.46,-21.122 -10.37,-30.829 -4.28,-8.441 -9.6,-16.332 -15.85,-23.449 -5.18,-5.91 -10.94,-11.301 -17.3,-15.832 l -0.08,-0.058 0.07,0.058 c -8.15,-5.801 -16.89,-8.922 -27.32,-10.019 h 0.01 c -7.55,-0.782 -15.18,-1.141 -22.85,-1.282 h -0.12 0.11 c -2.47,-0.039 -4.94,-0.07 -7.42,-0.07 -7.68,0 -15.37,0.223 -23.06,0.633 l -0.05,0.008 0.03,-0.008 c -11.98,0.598 -23.951,1.648 -35.904,3.137 -13.153,1.64 -26.235,3.812 -39.196,6.57 -13.632,2.891 -27.132,6.441 -40.343,10.762 -13.461,4.398 -26.668,9.578 -39.375,15.711 l -0.075,0.039 0.067,-0.032 c -12.699,6.102 -24.914,13.192 -36.274,21.34 l 0.055,-0.039 -0.059,0.039 c -11.375,8.153 -21.906,17.422 -31.152,27.75 -9.512,10.633 -17.66,22.36 -24.082,34.871 -8.441,16.45 -13.09,34.668 -13.09,53.328 0.055,37.934 19.031,77.84 65.871,109.012 27.629,18.34 62.196,28.352 98.664,28.34 67.395,-0.031 141.083,-34.031 189.703,-112.34 6.8,-10.961 12.86,-22.308 17.81,-34.039 l 0.03,-0.07 -0.03,0.078 c 6.18,-14.719 10.68,-30 12.57,-45.5 0.65,-5.367 0.99,-10.77 0.99,-16.141 0,-7.386 -0.64,-14.75 -1.98,-21.949 l -0.01,-0.039 0.01,0.02 4.92,-0.899" />
        <path
           inkscape:connector-curvature="0"
           id="path855"
           style="fill:#ffffff;fill-opacity:1;fill-rule:nonzero;stroke:none"
           d="m 905.738,588.641 c -4.492,6.41 -9.972,14.82 -15.207,24.23 -10.652,13.899 -23.574,26.168 -38.258,35.961 -18.168,12.098 -38.757,20.406 -60.171,24.637 -15.133,3.023 -30.879,3.051 -45.52,-1.457 -25.641,-7.891 -44.055,-28.321 -55.984,-50.953 -2.2,-4.188 -4.258,-8.469 -6.141,-12.84 -6.769,-15.758 -10.898,-32.309 -12.215,-49.059 -2.031,-25.781 2.563,-52 14.289,-76.41 13.328,-27.73 36.61,-49.199 65.926,-60.371 13.031,-4.957 27.106,-5.797 40.418,-2.32 13.508,3.543 25.578,10.91 36.105,19.601 11.684,9.61 21.743,21.012 30.782,33.031 9.062,12.059 17.125,24.868 24.418,38.047 6.234,11.274 11.929,22.793 17.035,34.614 3.226,7.468 6.777,15.23 8.836,23.128 1.812,6.95 -1.313,13.809 -4.313,20.161" />
        <path
           inkscape:connector-curvature="0"
           id="path857"
           style="fill:#21418b;fill-opacity:1;fill-rule:nonzero;stroke:none"
           d="m 905.738,588.641 4.094,2.871 c -4.41,6.289 -9.801,14.57 -14.93,23.789 l -0.179,0.32 -0.223,0.289 c -10.977,14.332 -24.289,26.969 -39.453,37.078 -18.742,12.492 -39.942,21.032 -61.977,25.391 h 0.008 c -7.129,1.422 -14.418,2.211 -21.711,2.211 -8.844,0 -17.699,-1.16 -26.258,-3.801 -27.379,-8.457 -46.617,-30.039 -58.937,-53.398 l -0.004,-0.012 c -2.25,-4.289 -4.367,-8.688 -6.301,-13.18 -6.984,-16.258 -11.25,-33.34 -12.609,-50.648 -0.32,-4.059 -0.481,-8.129 -0.481,-12.199 -0.004,-22.653 4.981,-45.403 15.25,-66.762 13.868,-28.879 38.161,-51.27 68.649,-62.879 8.297,-3.16 17.004,-4.77 25.711,-4.77 5.961,0 11.926,0.758 17.754,2.278 h 0.004 c 14.457,3.801 27.117,11.601 38.015,20.582 h -0.004 c 12.094,9.949 22.403,21.66 31.602,33.89 9.226,12.278 17.41,25.278 24.797,38.629 6.308,11.399 12.078,23.071 17.25,35.051 3.195,7.41 6.867,15.379 9.082,23.848 0.488,1.863 0.699,3.73 0.699,5.531 -0.051,7 -2.965,12.941 -5.328,18.031 l -0.184,0.379 -0.242,0.352 -4.094,-2.871 -4.519,-2.141 c 2.406,-5 4.418,-9.801 4.367,-13.75 0,-1.031 -0.117,-2.012 -0.375,-3 -1.898,-7.328 -5.324,-14.891 -8.586,-22.418 -5.039,-11.66 -10.66,-23.043 -16.82,-34.172 -7.203,-13.019 -15.145,-25.621 -24.043,-37.461 -8.875,-11.808 -18.684,-22.898 -29.961,-32.179 l -0.004,-0.008 c -10.156,-8.383 -21.633,-15.332 -34.192,-18.621 l -0.109,-0.032 0.117,0.032 c -4.996,-1.301 -10.105,-1.95 -15.226,-1.95 -7.481,0 -14.977,1.379 -22.153,4.11 -28.14,10.73 -50.414,31.281 -63.195,57.871 -9.613,20 -14.262,41.238 -14.262,62.43 0,3.808 0.149,7.617 0.45,11.41 1.273,16.199 5.261,32.207 11.824,47.488 1.824,4.23 3.832,8.398 5.972,12.488 l -0.031,-0.058 0.028,0.05 c 11.546,21.899 29.136,41.18 53.035,48.5 7.492,2.309 15.347,3.36 23.312,3.36 6.571,0 13.207,-0.711 19.754,-2.02 l -0.105,0.02 0.113,-0.02 c 20.797,-4.121 40.777,-12.179 58.375,-23.898 14.203,-9.473 26.726,-21.363 37.059,-34.84 l 3.968,3.039 -4.367,-2.43 c 5.34,-9.589 10.902,-18.14 15.481,-24.671 l 4.093,2.871 -4.519,-2.141 4.519,2.141" />
        <path
           inkscape:connector-curvature="0"
           id="path859"
           style="fill:#ffffff;fill-opacity:1;fill-rule:nonzero;stroke:none"
           d="m 1105.37,487.91 c -0.42,26.949 -8.15,54.692 -28.74,74.289 -19.61,18.66 -46.87,26.75 -73.26,29.68 -8.233,0.953 -16.472,0.891 -24.655,0.359 -15.793,-4.328 -32.777,-8.039 -48.035,-11.949 -16.262,-7.398 -31.078,-17.539 -44.117,-29.449 -14.485,-13.258 -27.043,-28.52 -38.028,-44.649 -9.543,-14.011 -17.93,-28.769 -25.312,-44 -4.903,-10.05 -9.375,-20.3 -13.278,-30.793 -0.863,-2.277 -1.515,-4.656 -1.976,-7.109 -2.578,-13.18 -0.172,-28.598 3.918,-41.008 5.547,-16.902 16.629,-31.449 31.312,-42.051 20.934,-15.179 46.946,-22.332 72.196,-26.058 38.296,-5.641 76.035,4.238 107.385,24.918 25.13,16.59 46.48,39.152 62.21,64.441 15.17,24.41 20.79,54.641 20.38,83.379" />
        <path
           inkscape:connector-curvature="0"
           id="path861"
           style="fill:#21418b;fill-opacity:1;fill-rule:nonzero;stroke:none"
           d="m 1105.37,487.91 5,0.07 c -0.43,27.801 -8.4,56.969 -30.29,77.852 -20.83,19.758 -49.18,28.008 -76.16,31.02 h 0.04 -0.02 c -4.768,0.546 -9.506,0.769 -14.206,0.769 -3.808,0 -7.589,-0.141 -11.339,-0.391 l -0.512,-0.031 -0.492,-0.129 c -15.618,-4.289 -32.571,-8 -47.953,-11.941 l -0.426,-0.109 -0.407,-0.18 c -16.785,-7.641 -32.031,-18.078 -45.417,-30.309 l 0.113,0.098 -0.113,-0.109 C 868.355,540.941 855.563,525.391 844.402,509 834.711,494.781 826.199,479.801 818.723,464.379 l 0.004,0.012 c -4.961,-10.192 -9.5,-20.582 -13.465,-31.243 l 0.008,0.024 c -0.977,-2.582 -1.707,-5.242 -2.215,-7.953 l 0.004,0.011 0.004,0.02 c -0.809,-4.129 -1.161,-8.391 -1.161,-12.68 0.008,-10.711 2.176,-21.55 5.235,-30.859 5.898,-17.961 17.664,-33.359 33.133,-44.539 l 0.07,-0.051 -0.078,0.059 c 21.953,-15.891 48.746,-23.149 74.402,-26.95 7.41,-1.101 14.801,-1.628 22.129,-1.628 31.852,0.007 62.508,10.007 88.737,27.308 25.79,17.031 47.61,40.102 63.71,65.981 15.31,24.668 21.14,54.55 21.15,83.078 0,1 -0.01,2.011 -0.02,3.011 l -5,-0.07 -5,-0.07 c 0.01,-0.961 0.02,-1.918 0.02,-2.871 0.01,-27.18 -5.65,-55.309 -19.65,-77.797 -15.35,-24.711 -36.24,-46.75 -60.72,-62.91 -24.727,-16.313 -53.485,-25.66 -83.227,-25.66 -6.848,0 -13.746,0.5 -20.668,1.519 -24.84,3.66 -50.074,10.688 -69.992,25.16 l -0.07,0.051 0.062,-0.051 c -13.895,10.039 -24.297,23.739 -29.488,39.559 -2.785,8.43 -4.742,18.39 -4.735,27.73 0,3.739 0.309,7.371 0.973,10.762 l 0.004,0.02 0.004,0.019 c 0.41,2.168 0.988,4.27 1.742,6.27 l 0.008,0.019 v 0 c 3.836,10.32 8.242,20.41 13.086,30.34 l 0.004,0.012 c 7.285,15.027 15.554,29.578 24.945,43.359 10.812,15.891 23.137,30.84 37.27,43.777 l 0.113,0.102 -0.117,-0.102 c 12.687,11.59 27.082,21.434 42.816,28.59 l -2.07,4.551 1.238,-4.84 c 15.137,3.871 32.148,7.59 48.121,11.973 l -1.324,4.816 0.324,-4.988 c 3.574,0.238 7.145,0.371 10.695,0.371 4.379,0 8.739,-0.211 13.066,-0.699 l 0.02,-0.012 c 25.8,-2.851 51.96,-10.781 70.37,-28.328 19.29,-18.34 26.77,-44.641 27.18,-70.75 l 5,0.078" />
        <path
           inkscape:connector-curvature="0"
           id="path863"
           style="fill:#21418b;fill-opacity:1;fill-rule:nonzero;stroke:none"
           d="m 2627.6,1316.3 h -5 C 2622.59,955.551 2476.39,629 2239.99,392.602 2003.58,156.199 1677.03,10 1316.3,10 955.559,10 629.016,156.199 392.605,392.602 156.203,629 10.0039,955.551 10,1316.3 c 0.0039,360.74 146.203,687.28 382.605,923.69 236.411,236.4 562.954,382.61 923.695,382.61 360.73,0 687.28,-146.21 923.69,-382.61 236.4,-236.41 382.6,-562.95 382.61,-923.69 h 5 5 C 2632.59,2043.27 2043.26,2632.6 1316.3,2632.6 589.324,2632.6 0.00390625,2043.27 0,1316.3 0.00390625,589.301 589.324,0 1316.3,0 2043.26,0 2632.59,589.301 2632.6,1316.3 h -5" />
        <path
           inkscape:connector-curvature="0"
           id="path865"
           style="fill:#ffffff;fill-opacity:1;fill-rule:evenodd;stroke:none"
           d="m 1499.34,2109.05 c -14.98,28.34 -34.15,48.88 -50.31,74.97 -12.93,20.9 -32.89,54.75 -20.07,74.63 9.74,15.11 32.22,18.81 41.01,28.6 9.03,10.06 2.71,28.07 12.07,39.39 14.49,17.5 59.3,29.61 86.39,31.57 13.06,0.94 28.26,-4.85 39.49,-2.77 29.37,5.43 66.31,41.15 95.49,15.19 21.19,-18.85 12.38,-60.46 31.76,-70.11 8.34,-4.16 20.7,9.57 31.44,5.45 11.08,-4.24 13.67,-14.32 24.16,-22.36 16.58,59.09 67.82,62.69 110.76,27.81 4.6,-3.74 8.79,-12.01 14.93,-15.28 13.99,-7.44 34.92,6.38 47.62,-4.03 19.8,-16.2 5.05,-40.12 12.17,-54.77 24.85,5.04 52.76,-3.75 64.67,-37.93 14.25,-40.91 1.46,-95.43 -32.9,-133.32 -77.52,-85.51 -260.79,-172.21 -236.83,-279.8 6.76,-30.34 31.28,-58.32 53.62,-90.13 41.88,-59.63 78.42,-117.83 96.78,-178.95 6.43,-21.37 24.34,-70.18 -16.52,-70.46 -12.55,6.75 -20.46,55.24 -30.92,90.76 -9,30.62 -23.57,64.87 -43.07,98.14 -32.91,56.22 -96.54,139.97 -175.05,143.81 -71.98,3.51 -149.38,-61.47 -223.18,-100.94 -71.8,-38.39 -159.83,-77.64 -222.34,-26.54 -14.27,11.67 -25.45,27.83 -27.5,35.19 -3.09,11.04 6.39,26.51 2.72,34.85 -3.65,8.26 -12.47,8.21 -18.42,16.48 -4.98,6.93 -0.42,14.77 -4.38,23.29 -3.28,7.07 -9.27,11.35 -11.44,16.41 -14.84,34.66 10.17,99.6 44.44,126.21 31.07,24.13 67.81,6.91 99.03,18.63 -14.81,13.95 -36.25,5.76 -52.08,20.37 -10.18,9.38 -9.88,26.25 -20.51,37.42 -9.18,9.66 -21.32,7.6 -28.83,20.1 -1.72,11.64 4.88,23.18 16.67,34.68 -33.7,20.08 -35.17,45.72 -0.31,75.57 42.07,36.01 97.22,64.1 146.01,62.27 26.41,-0.98 48.91,-7.64 71.85,-19.41 24.36,-12.49 44.75,-31.51 71.58,-44.99" />
        <path
           inkscape:connector-curvature="0"
           id="path867"
           style="fill:#21418b;fill-opacity:1;fill-rule:nonzero;stroke:none"
           d="m 1499.34,2109.05 4.42,2.34 c -15.39,29.03 -34.69,49.7 -50.48,75.26 -4.97,8.04 -10.91,17.9 -15.56,27.96 -4.66,10.05 -7.92,20.31 -7.89,28.68 0.01,4.92 1.05,9.1 3.33,12.65 3.96,6.22 11.13,10.61 18.93,14.55 7.75,4.02 15.94,7.28 21.6,13.42 5.93,6.75 6.39,15 7.17,22.07 0.67,7.23 1.56,13.38 5.03,17.47 5.95,7.36 20.23,14.82 36.2,20.06 15.96,5.32 33.68,8.78 46.7,9.71 0.87,0.06 1.76,0.09 2.68,0.09 9.27,0.07 20.45,-3.25 31.01,-3.33 2.12,0 4.25,0.15 6.35,0.54 11.97,2.25 24.02,8.61 36.06,14.16 12.01,5.61 23.9,10.36 34.33,10.31 7.39,-0.05 14.07,-2.11 20.86,-8.1 8.96,-7.8 12.19,-21.73 14.99,-35.77 1.44,-6.99 2.83,-13.91 5.3,-20.09 2.44,-6.12 6.22,-11.83 12.57,-14.99 1.88,-0.95 3.92,-1.33 5.79,-1.32 5.12,0.09 9.28,2.25 13.28,3.94 3.95,1.77 7.64,3.14 10.24,3.09 0.95,0 1.76,-0.14 2.57,-0.45 l 0.05,-0.01 -0.05,0.01 c 4.36,-1.69 6.99,-4.35 10.23,-8.26 3.21,-3.86 6.78,-8.87 12.68,-13.4 l 5.86,-4.5 2,7.11 c 4.65,16.56 11.99,28.13 20.78,35.57 8.8,7.43 19.1,10.91 30.47,10.93 16.11,0.02 34.39,-7.27 51.54,-21.21 v 0 c 1.52,-1.19 3.7,-4.02 6.16,-7.09 2.51,-3.05 5.38,-6.46 9.57,-8.73 l -0.05,0.03 0.06,-0.03 c 4.23,-2.25 8.75,-2.9 13.06,-2.9 8.65,0.06 17.09,2.41 23.74,2.34 4.26,-0.02 7.37,-0.78 9.99,-2.92 3.88,-3.19 6,-6.45 7.32,-9.98 1.3,-3.53 1.73,-7.42 1.73,-11.59 0.02,-5.67 -0.82,-11.73 -0.84,-17.82 0.01,-4.55 0.48,-9.25 2.63,-13.7 l 1.7,-3.48 3.79,0.77 c 3.92,0.79 7.91,1.21 11.87,1.21 9.67,0 19.09,-2.48 27.25,-8.1 8.15,-5.63 15.17,-14.45 19.84,-27.79 3.65,-10.49 5.45,-22.02 5.45,-34 0.03,-32.24 -13.13,-67.66 -37.34,-94.31 -35.72,-39.47 -95.4,-79.93 -146.31,-122.86 -25.46,-21.5 -48.78,-43.64 -65.88,-66.94 -17.09,-23.27 -28.06,-47.88 -28.07,-74.02 0,-6.74 0.73,-13.55 2.26,-20.43 7.3,-32.2 32.34,-60.33 54.41,-91.91 41.8,-59.5 78.02,-117.32 96.08,-177.52 3.34,-10.95 9.31,-28.58 9.27,-42.34 0.01,-6.69 -1.39,-12.1 -4.31,-15.59 -2.9,-3.45 -7.57,-5.97 -16.73,-6.09 l 0.04,-5 2.37,4.4 c -0.57,0.29 -1.63,1.2 -2.79,2.86 -2.05,2.89 -4.31,7.82 -6.45,13.94 -6.52,18.44 -12.32,47.37 -19.25,70.97 -9.14,31.05 -23.85,65.63 -43.55,99.26 -16.63,28.38 -40.96,63.71 -71.29,92.64 -30.32,28.88 -66.81,51.59 -107.84,53.63 -1.96,0.1 -3.93,0.14 -5.9,0.14 -36.7,-0.04 -73.75,-16.17 -110.63,-36.75 -36.87,-20.63 -73.65,-45.88 -109.25,-64.91 -47.06,-25.23 -100.92,-50.4 -148.62,-50.32 -24.78,0.02 -47.78,6.58 -68.2,23.24 -6.76,5.52 -12.89,12.22 -17.5,18.35 -4.61,6.05 -7.71,11.83 -8.34,14.31 v 0.01 c -0.3,1.05 -0.45,2.28 -0.45,3.68 -0.01,3.32 0.91,7.5 1.96,11.81 1.03,4.33 2.22,8.75 2.25,13.29 0,2.2 -0.31,4.5 -1.29,6.74 -2.46,5.61 -6.91,8.44 -10.34,10.49 -3.54,2.13 -6.32,3.74 -8.59,6.88 -1.38,1.95 -1.62,3.93 -1.63,7.46 0,0.83 0.01,1.74 0.01,2.69 0,3.44 -0.17,7.79 -2.29,12.34 -1.97,4.24 -4.64,7.44 -6.84,10.07 -2.24,2.61 -3.94,4.73 -4.54,6.2 h 0.01 c -2.66,6.19 -3.97,13.77 -3.97,22.16 -0.02,16.58 5.14,36.22 13.66,54.12 8.5,17.91 20.39,34.08 33.22,44.01 15.25,11.84 31.95,12.93 50.03,12.93 3.52,0 7.07,-0.03 10.65,-0.03 12.24,0.01 24.81,0.43 37.03,5 l 7.51,2.82 -5.84,5.5 c -8.75,8.21 -19.2,9.7 -28.26,11.23 -9.26,1.52 -17.2,3.02 -23.85,9.17 -3.96,3.59 -6.29,9.28 -8.79,16.11 -2.53,6.74 -5.28,14.52 -11.48,21.08 -5.53,5.8 -11.81,7.96 -16.65,10.12 -4.96,2.23 -8.44,4.08 -11.52,9.11 l -4.29,-2.57 4.95,0.73 c -0.15,0.98 -0.22,1.97 -0.22,2.95 0,4.16 1.27,8.47 3.87,13.09 2.59,4.6 6.52,9.42 11.56,14.33 l 4.65,4.54 -5.59,3.33 c -8.14,4.85 -14.09,9.94 -17.89,15.01 -3.8,5.1 -5.51,10.05 -5.53,15.31 0,5.13 1.7,10.76 5.58,17.01 3.86,6.24 9.9,13.02 18.23,20.15 40.11,34.41 92.5,61.25 138.22,61.16 1.46,0 2.91,-0.03 4.36,-0.09 25.67,-0.97 47.3,-7.36 69.75,-18.86 23.54,-12 44.01,-31.09 71.61,-45.01 l 13.97,-7.02 -7.3,13.83 -4.42,-2.34 2.24,4.47 c -26.05,13.03 -46.36,32 -71.53,44.97 -23.43,12.03 -46.8,18.96 -73.95,19.96 -1.57,0.05 -3.15,0.09 -4.73,0.09 -49.57,-0.1 -103.29,-28.18 -144.72,-63.57 -8.88,-7.6 -15.62,-15.04 -20.23,-22.47 -4.6,-7.41 -7.08,-14.89 -7.08,-22.28 -0.02,-7.58 2.67,-14.85 7.53,-21.31 4.87,-6.48 11.86,-12.28 20.78,-17.6 l 2.56,4.3 -3.5,3.58 c -5.5,-5.38 -10.04,-10.85 -13.28,-16.58 -3.23,-5.72 -5.16,-11.76 -5.16,-18 0,-1.47 0.11,-2.94 0.33,-4.42 l 0.15,-0.98 0.51,-0.86 c 4.43,-7.46 10.77,-10.82 16.06,-13.11 5.4,-2.35 9.77,-3.99 13.43,-7.86 4.42,-4.61 6.84,-10.85 9.36,-17.68 2.55,-6.74 5.15,-14.17 11.38,-19.97 9.17,-8.45 19.87,-10.16 28.99,-11.69 9.31,-1.51 16.99,-2.9 23.05,-8.64 l 3.43,3.64 -1.76,4.69 c -10.22,-3.86 -21.51,-4.39 -33.52,-4.37 -3.5,0 -7.05,0.03 -10.65,0.03 -18.27,0.01 -38.12,-1.01 -56.16,-15.03 -14.53,-11.31 -27.05,-28.59 -36.12,-47.61 -9.04,-19.04 -14.61,-39.82 -14.63,-58.42 0,-9.41 1.44,-18.3 4.77,-26.1 v 0 c 1.58,-3.59 3.96,-6.14 6.08,-8.71 2.15,-2.54 4.12,-5.01 5.43,-7.83 1.16,-2.52 1.35,-5 1.35,-8.13 0,-0.86 -0.01,-1.76 -0.01,-2.69 -0.01,-3.76 0.2,-8.71 3.51,-13.3 3.69,-5.12 8.29,-7.62 11.55,-9.6 3.38,-2.06 5.16,-3.33 6.35,-5.98 0.25,-0.54 0.44,-1.42 0.44,-2.69 0.02,-2.62 -0.89,-6.59 -1.96,-10.94 -1.05,-4.38 -2.23,-9.17 -2.25,-14.16 0,-2.1 0.22,-4.24 0.82,-6.38 v 0.01 c 1.41,-4.88 4.92,-10.87 9.98,-17.65 5.06,-6.71 11.65,-13.92 19.16,-20.07 22.31,-18.27 48,-25.53 74.53,-25.51 51.14,0.08 105.88,26.2 153.34,51.51 36.28,19.41 73.08,44.69 109.41,65 36.32,20.34 72.09,35.53 105.75,35.48 1.81,0 3.61,-0.04 5.41,-0.13 37.49,-1.79 72.07,-22.87 101.43,-50.88 29.33,-27.96 53.27,-62.62 69.56,-90.46 19.29,-32.91 33.71,-66.83 42.58,-97.02 5.16,-17.51 9.75,-38.49 14.66,-56.1 2.46,-8.81 4.99,-16.79 7.83,-23.23 1.43,-3.23 2.93,-6.08 4.64,-8.52 1.72,-2.42 3.65,-4.5 6.22,-5.9 l 1.12,-0.61 1.28,0.01 c 10.98,0.02 19.31,3.53 24.37,9.73 5.05,6.16 6.59,14.02 6.6,21.95 -0.05,16.33 -6.5,34.49 -9.69,45.22 -18.65,62.03 -55.52,120.62 -97.47,180.39 -22.61,32.03 -46.63,59.86 -52.84,88.34 -1.37,6.16 -2.02,12.23 -2.02,18.25 -0.01,23.23 9.78,45.83 26.13,68.1 24.47,33.39 63.49,65.54 103.31,96.75 39.82,31.26 80.4,61.57 108.23,92.25 25.91,28.6 39.91,66.11 39.93,101.03 0,12.98 -1.94,25.62 -6.01,37.29 -5.22,15.03 -13.58,25.84 -23.61,32.74 -10.02,6.91 -21.55,9.87 -32.92,9.86 -4.67,0 -9.31,-0.49 -13.85,-1.42 l 0.99,-4.89 4.5,2.18 c -1.16,2.37 -1.64,5.49 -1.63,9.33 -0.01,5.11 0.83,11.26 0.84,17.82 0,4.83 -0.48,9.96 -2.35,15.05 -1.86,5.08 -5.18,10.04 -10.36,14.26 -4.96,4.08 -10.89,5.2 -16.33,5.18 -8.6,-0.06 -17.02,-2.4 -23.74,-2.34 -3.33,0 -6.08,0.51 -8.37,1.73 l -0.05,0.03 0.06,-0.03 c -1.96,1 -4.25,3.37 -6.52,6.2 -2.32,2.82 -4.54,6 -7.61,8.55 l 0.11,-0.09 -0.11,0.09 c -18.5,15.01 -38.73,23.42 -57.85,23.45 -13.45,0.02 -26.33,-4.29 -36.93,-13.3 -10.63,-8.99 -18.9,-22.49 -23.95,-40.49 l 4.81,-1.35 3.05,3.96 c -4.6,3.52 -7.56,7.57 -11.05,11.83 -3.44,4.19 -7.66,8.69 -14.37,11.24 v 0 c -2.05,0.79 -4.16,1.11 -6.15,1.11 -5.52,-0.05 -10.18,-2.19 -14.25,-3.93 -4.03,-1.83 -7.57,-3.19 -9.27,-3.1 l -1.33,0.27 c -3.35,1.67 -5.73,4.78 -7.75,9.77 -3.01,7.4 -4.5,18.21 -7.13,29.13 -2.67,10.89 -6.59,22.25 -15.79,30.48 -8.46,7.58 -18.09,10.67 -27.51,10.62 -13.35,-0.05 -26.26,-5.58 -38.54,-11.24 -12.23,-5.71 -23.94,-11.64 -33.67,-13.39 -1.35,-0.26 -2.87,-0.38 -4.53,-0.38 -8.38,-0.07 -19.73,3.27 -31.01,3.33 -1.13,0 -2.27,-0.04 -3.4,-0.12 -14.07,-1.02 -32.3,-4.6 -49.14,-10.19 -16.83,-5.69 -32.2,-13.04 -40.74,-23.17 -5.89,-7.22 -6.53,-15.74 -7.28,-22.86 -0.67,-7.28 -1.55,-13.07 -4.66,-16.38 -3.12,-3.64 -10.57,-7.14 -18.7,-11.19 -8.07,-4.14 -17.01,-9.15 -22.8,-18.04 -3.53,-5.47 -4.93,-11.73 -4.92,-18.07 0.03,-10.83 3.87,-22.12 8.81,-32.87 4.96,-10.73 11.12,-20.9 16.14,-29.03 16.52,-26.61 35.56,-47.03 50.14,-74.68 l 4.42,2.34 2.24,4.47 -2.24,-4.47" />
        <path
           inkscape:connector-curvature="0"
           id="path869"
           style="fill:#21418b;fill-opacity:1;fill-rule:nonzero;stroke:none"
           d="m 267.242,1203.79 v 137.53 c 0,11.68 -3.808,17.53 -11.414,17.53 -5.164,0 -11.613,-5.1 -19.359,-15.29 v -144.27 c 7.066,-9.77 13.515,-14.66 19.359,-14.66 3.258,0 5.809,1.09 7.645,3.26 1.832,2.17 2.918,4.45 3.257,6.82 0.336,2.38 0.512,5.4 0.512,9.08 z m -99.437,-180.61 v 381.51 h 68.664 v -17.93 c 5.57,7.2 12.191,13 19.871,17.42 7.668,4.41 15.789,6.62 24.348,6.62 15.621,0 28.73,-6.45 39.328,-19.36 10.593,-12.9 15.89,-27.78 15.89,-44.62 v -157.1 c 0,-15.21 -5.093,-28.49 -15.281,-39.84 -10.191,-11.33 -22.82,-17.01 -37.898,-17.01 -9.106,0 -17.727,2.31 -25.879,6.93 -8.153,4.61 -14.946,10.94 -20.379,18.95 v -135.57 h -68.664" />
        <path
           inkscape:connector-curvature="0"
           id="path871"
           style="fill:#21418b;fill-opacity:1;fill-rule:nonzero;stroke:none"
           d="m 464.477,1198.88 v 65.42 c -22.547,-18.21 -33.825,-38.17 -33.825,-59.91 0,-5.43 1.051,-10.09 3.161,-13.95 2.105,-3.88 5.667,-5.81 10.695,-5.81 2.855,0 5.672,0.91 8.457,2.75 2.781,1.84 4.789,3.43 6.012,4.79 1.222,1.35 3.054,3.59 5.5,6.71 z m 13.859,-60.09 -6.727,27.5 c -3.941,-12.37 -10.394,-21.02 -19.359,-25.98 -8.965,-4.96 -20.102,-7.44 -33.418,-7.44 -9.777,0 -18.336,1.91 -25.672,5.7 -7.336,3.81 -13.07,8.94 -17.219,15.39 -4.144,6.45 -7.203,13.38 -9.168,20.78 -1.968,7.41 -2.957,15.18 -2.957,23.33 0,9.24 0.954,17.81 2.86,25.68 1.898,7.88 4.304,14.84 7.23,20.89 2.918,6.04 6.996,11.84 12.227,17.42 5.222,5.56 10.32,10.29 15.285,14.16 4.953,3.87 11.309,7.87 19.047,12.02 7.742,4.14 14.672,7.61 20.785,10.39 6.113,2.78 13.785,6.08 23.023,9.88 v 22.42 c 0,9.37 -1.152,16.37 -3.46,20.99 -2.317,4.61 -6.25,6.93 -11.821,6.93 -3.804,0 -6.898,-0.79 -9.269,-2.35 -2.379,-1.57 -4.043,-3.9 -4.996,-7.03 -0.954,-3.12 -1.563,-5.94 -1.832,-8.46 -0.274,-2.51 -0.411,-5.88 -0.411,-10.08 v -15.08 h -66.625 c 0,30.56 7.672,54.03 23.024,70.4 15.351,16.36 37.625,24.55 66.836,24.55 20.375,0 38.234,-7.4 53.59,-22.21 15.343,-14.81 23.019,-32.4 23.019,-52.77 v -126.33 c 0,-21.88 2.922,-45.44 8.766,-70.7 h -62.758" />
        <path
           inkscape:connector-curvature="0"
           id="path873"
           style="fill:#21418b;fill-opacity:1;fill-rule:nonzero;stroke:none"
           d="m 570.434,1138.79 v 376.76 h 68.668 v -376.76 h -68.668" />
        <path
           inkscape:connector-curvature="0"
           id="path875"
           style="fill:#21418b;fill-opacity:1;fill-rule:nonzero;stroke:none"
           d="m 743.223,1301.99 h 26.695 v 36.68 c 0,13.45 -4.559,20.18 -13.652,20.18 -8.7,0 -13.043,-6.73 -13.043,-20.18 z m -68.668,-94.13 v 113.08 c 0,28.26 6.722,50.3 20.172,66.12 13.449,15.83 33.961,23.74 61.539,23.74 27.711,0 48.254,-7.88 61.632,-23.63 13.379,-15.77 20.071,-37.84 20.071,-66.23 v -55.01 h -94.746 v -58.88 c 0,-14.95 4.343,-22.42 13.043,-22.42 9.504,0 14.261,8 14.261,24.04 v 29.14 h 67.442 v -29.95 c 0,-22.14 -8.012,-40.18 -24.043,-54.1 -16.031,-13.93 -35.25,-20.89 -57.66,-20.89 -22.418,0 -41.641,6.99 -57.668,20.99 -16.032,13.99 -24.043,32 -24.043,54" />
        <path
           inkscape:connector-curvature="0"
           id="path877"
           style="fill:#21418b;fill-opacity:1;fill-rule:nonzero;stroke:none"
           d="m 964.508,1207.05 v 131.62 c 0,13.45 -5.235,20.18 -15.695,20.18 -9.372,0 -14.055,-6.73 -14.055,-20.18 v -131.62 c 0,-3 0.101,-5.48 0.305,-7.44 0.203,-1.98 0.714,-4.28 1.531,-6.94 0.808,-2.64 2.238,-4.65 4.273,-6 2.039,-1.36 4.692,-2.04 7.946,-2.04 10.46,0 15.695,7.47 15.695,22.42 z m -98.418,0.81 v 113.08 c 0,28.39 6.687,50.43 20.066,66.12 13.379,15.69 34.27,23.54 62.657,23.54 28.394,0 49.445,-7.85 63.167,-23.54 13.72,-15.69 20.58,-37.73 20.58,-66.12 v -113.08 c 0,-22.14 -8.22,-40.18 -24.65,-54.1 -16.441,-13.93 -36.137,-20.89 -59.097,-20.89 -14.805,0 -28.458,3.03 -40.954,9.07 -12.5,6.05 -22.586,14.87 -30.257,26.49 -7.676,11.61 -11.512,24.75 -11.512,39.43" />
        <path
           inkscape:connector-curvature="0"
           id="path879"
           style="fill:#21418b;fill-opacity:1;fill-rule:nonzero;stroke:none"
           d="m 1049.27,1251.09 v 45.44 h 84.97 v -45.44 h -84.97" />
        <path
           inkscape:connector-curvature="0"
           id="path881"
           style="fill:#21418b;fill-opacity:1;fill-rule:nonzero;stroke:none"
           d="m 1152.98,1261.24 v 121.44 c 0,86.67 35.46,130 106.37,130 14.94,0 28.22,-2 39.83,-6.01 11.62,-4.01 21.36,-9.54 29.24,-16.6 7.88,-7.07 14.37,-15.77 19.46,-26.09 5.09,-10.32 8.77,-21.53 11.01,-33.62 2.24,-12.09 3.36,-25.4 3.36,-39.93 v -31.58 h -72.95 v 33.82 c 0,6.65 -0.13,12.39 -0.41,17.22 -0.27,4.81 -0.98,10.32 -2.14,16.5 -1.15,6.18 -2.72,11.21 -4.68,15.08 -1.97,3.87 -4.89,7.16 -8.76,9.88 -3.88,2.71 -8.53,4.08 -13.96,4.08 -21.47,0 -32.2,-18.07 -32.2,-54.21 v -158.31 c 0,-36 10.73,-54.01 32.2,-54.01 6.38,0 11.74,1.84 16.09,5.51 4.35,3.66 7.48,8.87 9.38,15.59 1.9,6.72 3.19,13.31 3.87,19.76 0.68,6.45 1.02,13.82 1.02,22.11 v 37.69 h 72.54 v -30.97 c -0.28,-13.98 -1.43,-26.89 -3.47,-38.71 -2.04,-11.82 -5.5,-23.3 -10.39,-34.43 -4.89,-11.15 -11.1,-20.55 -18.64,-28.23 -7.54,-7.67 -17.29,-13.85 -29.24,-18.54 -11.96,-4.69 -25.68,-7.03 -41.16,-7.03 -15.9,0 -29.99,2.27 -42.28,6.82 -12.3,4.55 -22.42,10.67 -30.36,18.34 -7.95,7.68 -14.5,17.11 -19.66,28.32 -5.17,11.22 -8.8,22.99 -10.91,35.36 -2.11,12.36 -3.16,25.94 -3.16,40.75" />
        <path
           inkscape:connector-curvature="0"
           id="path883"
           style="fill:#21418b;fill-opacity:1;fill-rule:nonzero;stroke:none"
           d="m 1532.59,1242.69 v 158.53 c 0,36.14 -11.08,54.21 -33.21,54.21 -6.66,0 -12.3,-1.67 -16.91,-5 -4.63,-3.33 -8.03,-7.88 -10.19,-13.65 -2.17,-5.78 -3.71,-11.48 -4.59,-17.11 -0.88,-5.64 -1.32,-11.79 -1.32,-18.45 v -158.53 c 0,-35.99 11,-53.98 33.01,-53.98 22.13,0 33.21,17.99 33.21,53.98 z m -140.39,16.72 v 123.27 c 0,86.67 35.72,130 107.18,130 71.59,0 107.38,-43.33 107.38,-130 v -121.44 c 0,-14.67 -1.09,-28.22 -3.26,-40.65 -2.18,-12.43 -5.87,-24.22 -11.11,-35.36 -5.23,-11.13 -11.89,-20.6 -19.96,-28.42 -8.08,-7.81 -18.32,-13.95 -30.67,-18.43 -12.37,-4.5 -26.5,-6.73 -42.38,-6.73 -15.76,0 -29.82,2.21 -42.18,6.63 -12.37,4.4 -22.55,10.39 -30.57,17.93 -8.01,7.54 -14.63,16.77 -19.86,27.7 -5.24,10.93 -8.97,22.59 -11.21,34.95 -2.24,12.36 -3.36,25.88 -3.36,40.55" />
        <path
           inkscape:connector-curvature="0"
           id="path885"
           style="fill:#21418b;fill-opacity:1;fill-rule:nonzero;stroke:none"
           d="m 1754.15,1250.13 c 0,-10.14 -1.59,-20.19 -4.79,-30.13 -3.2,-9.94 -7.75,-19.49 -13.63,-28.66 -5.9,-9.17 -11.56,-17.26 -17.03,-24.25 -5.45,-6.99 -11.98,-14.91 -19.57,-23.74 -7.6,-8.84 -13.14,-15.6 -16.64,-20.29 h 71.66 v -44.27 h -122.6 v 39.54 l 56.06,80.24 c 3.24,4.69 5.93,8.69 8.06,12.03 2.13,3.32 4.42,7.33 6.85,12.02 2.43,4.7 4.27,9.35 5.5,13.96 1.24,4.61 1.85,9.12 1.85,13.55 0,2.66 -0.31,5.34 -0.95,8.07 -0.65,2.73 -1.61,5.38 -2.88,7.94 -1.28,2.56 -3.06,4.62 -5.31,6.21 -2.26,1.57 -4.84,2.36 -7.75,2.36 -2.38,0 -4.53,-0.55 -6.47,-1.66 -1.91,-1.11 -3.47,-2.62 -4.66,-4.55 -1.2,-1.92 -2.22,-4.11 -3.07,-6.58 -0.86,-2.48 -1.46,-5.11 -1.8,-7.88 -0.33,-2.77 -0.63,-5.57 -0.9,-8.38 -0.25,-2.81 -0.35,-5.49 -0.31,-8 0.04,-2.52 0.06,-4.84 0.06,-6.98 0,-1.44 0,-2.46 0,-3.07 h -44.14 v 14.47 c 0,8.44 0.67,16.19 2.04,23.23 1.36,7.04 3.58,13.58 6.65,19.64 3.08,6.06 6.95,11.18 11.65,15.36 4.7,4.17 10.5,7.44 17.41,9.79 6.91,2.34 14.75,3.52 23.54,3.52 19.45,0 34.51,-5.7 45.17,-17.09 10.67,-11.39 16,-26.85 16,-46.4" />
      </g>
    </g>
  </g>
</svg>
