<?xml version="1.0" encoding="utf-8"?>
<!-- Generator: Adobe Illustrator 16.0.4, SVG Export Plug-In . SVG Version: 6.00 Build 0)  -->
<!DOCTYPE svg PUBLIC "-//W3C//DTD SVG 1.1//EN" "http://www.w3.org/Graphics/SVG/1.1/DTD/svg11.dtd">
<svg version="1.1" id="nahcolite" xmlns="http://www.w3.org/2000/svg" xmlns:xlink="http://www.w3.org/1999/xlink" x="0px" y="0px"
	 width="52.004px" height="52px" viewBox="0 0 52.004 52" enable-background="new 0 0 52.004 52" xml:space="preserve">
<g>
	<g>
		<path fill="#FFFFFF" d="M30.946,45.728L30.87,23.586c0.227-0.342,1.437-1.709,2.192-2.563c0,0,0.075-0.086,0.075-0.171
			l-0.681-9.147c0-0.085-0.074-0.171-0.15-0.256c-0.076,0-0.151,0-0.227,0.085l-9.373,9.232c-0.075,0.086-0.075,0.171-0.075,0.257
			l5.819,28.552c0,0.085,0.076,0.171,0.152,0.171h0.075c0.075,0,0.151,0,0.151-0.086l2.494-2.736
			c0.075-0.085,0.075-0.17,0.075-0.256s-0.075-0.171-0.075-0.171C31.097,46.325,30.946,46.069,30.946,45.728z M22.405,18.543h0.076
			c0.075,0,0.075,0,0.151-0.086l1.134-1.111c2.268-2.222,7.104-6.924,8.162-8.206c0.076-0.086,0.076-0.171,0.076-0.257
			c0-0.085-0.076-0.17-0.15-0.17L19.911,2.045c-0.076-0.086-0.151,0-0.227,0c-0.075,0.085-0.075,0.171-0.075,0.256l2.645,16.071
			C22.253,18.457,22.329,18.543,22.405,18.543z M9.026,15.551l11.338,3.676h0.075c0.076,0,0.151,0,0.151-0.086
			c0.076-0.085,0.076-0.17,0.076-0.256L18.021,2.813c0-0.085-0.076-0.171-0.151-0.171s-0.151,0-0.227,0.086L8.875,15.124
			c0,0.085-0.076,0.171,0,0.256C8.875,15.466,8.951,15.551,9.026,15.551z M11.672,28.715v-0.256L9.556,23.33
			c0-0.086-0.076-0.171-0.151-0.171l-6.123-0.94c-0.151,0.086-0.227,0.086-0.227,0.171c-0.076,0.086-0.076,0.086-0.076,0.171
			l-0.982,8.207c0,0.086,0,0.171,0.075,0.256c0.076,0.086,0.076,0.086,0.151,0.086c0,0,0,0,0.076,0
			c1.814-0.342,5.442-1.197,9.221-2.223C11.596,28.887,11.672,28.801,11.672,28.715z M49.918,23.758l-7.482-8.891
			c-0.076-0.086-0.228-0.086-0.303,0l-9.07,8.463c-0.076,0.085-0.076,0.085-0.076,0.171c0,0.085,0,0.171,0.076,0.171l7.937,7.267
			c0.075,0,0.075,0.085,0.151,0.085c0.075,0,0.075,0,0.15-0.085c0.982-0.769,3.704-2.907,7.938-6.411l0.68-0.428
			c0.074-0.085,0.074-0.085,0.074-0.171S49.992,23.758,49.918,23.758z M12.201,30.511c-1.89,0.513-6.425,1.624-9.222,2.223
			c-0.075,0-0.151,0.086-0.151,0.171c0,0.086,0,0.171,0.076,0.257l9.826,12.31c0.076,0.085,0.076,0.085,0.151,0.085h0.075
			c0,0,4.687-1.367,4.762-1.367c0.075,0,0.151-0.085,0.151-0.171v-0.257l-5.366-13.079C12.428,30.597,12.352,30.511,12.201,30.511z
			 M40.167,32.392l-7.331-6.668c-0.076-0.085-0.151-0.085-0.227,0c-0.076,0.086-0.152,0.171-0.152,0.257l0.076,19.233
			c-0.076,0,0,0.085,0.076,0.171l4.459,3.078c0,0,0.076,0,0.151,0h0.075c0.075,0,0.151-0.086,0.151-0.172
			c0.528-2.563,1.662-8.719,2.796-15.644C40.242,32.562,40.242,32.478,40.167,32.392z M20.969,21.193L9.253,17.432
			c-0.076,0-0.152,0-0.227,0.085c-0.076,0.086-0.076,0.172,0,0.257l12.245,29.663c-0.076,0.171,0,0.257,0.076,0.257l5.215,2.308
			h0.076c0.075,0,0.075,0,0.15-0.085c0.076-0.086,0.076-0.171,0.076-0.257L21.12,21.364C21.12,21.278,21.044,21.193,20.969,21.193z
			 M48.709,27.177c-3.932,3.249-6.047,4.873-6.879,5.471c-0.076,0-0.076,0.086-0.076,0.172c-0.453,2.649-1.512,9.231-2.418,13.677
			c0,0.085,0,0.257,0.076,0.257c0.075,0.085,0.15,0.085,0.15,0.085c0.075,0,0.151,0,0.151-0.085l3.325-3.42l0.075-0.085
			l5.972-15.729c0.076-0.086,0-0.256-0.075-0.342S48.783,27.091,48.709,27.177z"/>
	</g>
</g>
</svg>
