<?xml version="1.0" encoding="utf-8"?>
<!-- Generator: Adobe Illustrator 16.0.4, SVG Export Plug-In . SVG Version: 6.00 Build 0)  -->
<!DOCTYPE svg PUBLIC "-//W3C//DTD SVG 1.1//EN" "http://www.w3.org/Graphics/SVG/1.1/DTD/svg11.dtd">
<svg version="1.1" id="paleosols" xmlns="http://www.w3.org/2000/svg" xmlns:xlink="http://www.w3.org/1999/xlink" x="0px" y="0px"
	 width="52.004px" height="52px" viewBox="0 0 52.004 52" enable-background="new 0 0 52.004 52" xml:space="preserve">
<path fill="#FFFFFF" d="M40.535,49.688c0.034-0.009,0.067-0.021,0.098-0.043c0.031-0.021,0.056-0.048,0.076-0.078
	c5.84-8.963-1.186-20.721-2.871-23.186c-0.731-1.068-3.299-4.823-4.844-7.082c-0.086-0.127-0.244-0.171-0.379-0.116
	c-1.92,0.768-4.57,2.201-7.455,4.072l0.835,1.221c0.767,1.122,3.121,5.228,2.874,7.965l-7.041-10.296
	c-0.101-0.147-0.064-0.345,0.08-0.444l1.248-0.858c0.118-0.081,0.163-0.228,0.122-0.358l0.001,0.002l-1.123-3.591
	c-0.099-0.304-0.241-0.601-0.431-0.879c-0.004-0.005-0.008-0.011-0.011-0.016L13.142,3.462c-1.057-1.544-3.159-1.941-4.693-0.886
	C6.913,3.633,6.526,5.742,7.582,7.287l8.584,12.554c0.19,0.277,0.413,0.52,0.66,0.722l3.119,2.49l1.762,2.575
	c-2.796,2.037-5.1,4.012-6.514,5.541l0,0c-0.102,0.106-0.119,0.273-0.031,0.401c1.545,2.26,4.111,6.013,4.842,7.081
	C21.854,41.357,30.098,51.926,40.535,49.688z M20.449,16.895c0.19,0.277,0.334,0.573,0.432,0.877l0.688,2.201
	c0.038,0.128-0.008,0.271-0.125,0.352l-0.323,0.223c-0.145,0.1-0.342,0.062-0.44-0.081l-1.735-2.537l-0.436-0.637
	c-0.098-0.143-0.063-0.336,0.073-0.436l1-0.688c0.143-0.092,0.333-0.054,0.431,0.089l0,0L20.449,16.895z M17,16.398l0.35-0.24
	c0.145-0.1,0.181-0.298,0.082-0.442l0.001-0.001L9.524,4.15C9.425,4.005,9.461,3.807,9.606,3.707
	c0.017-0.012,0.037-0.021,0.055-0.029c0.781-0.322,1.705-0.066,2.203,0.662l7.43,10.865l0,0c0.1,0.146,0.063,0.344-0.08,0.443
	l-1.855,1.276c-0.145,0.1-0.342,0.062-0.442-0.084C16.818,16.697,16.854,16.498,17,16.398z"/>
</svg>
