<?xml version="1.0" encoding="utf-8"?>
<!-- Generator: Adobe Illustrator 16.0.4, SVG Export Plug-In . SVG Version: 6.00 Build 0)  -->
<!DOCTYPE svg PUBLIC "-//W3C//DTD SVG 1.1//EN" "http://www.w3.org/Graphics/SVG/1.1/DTD/svg11.dtd">
<svg version="1.1" id="phytoplankton" xmlns="http://www.w3.org/2000/svg" xmlns:xlink="http://www.w3.org/1999/xlink" x="0px"
	 y="0px" width="52.004px" height="52px" viewBox="0 0 52.004 52" enable-background="new 0 0 52.004 52" xml:space="preserve">
<path fill="#FFFFFF" d="M51.993,26.12c0-0.042,0.007-0.083,0.007-0.125s-0.007-0.084-0.007-0.126c0-0.12-0.001-0.24-0.003-0.36
	c-0.002-0.167,0.004-0.334-0.002-0.5c-0.004-0.099-0.008-0.197-0.013-0.295c-0.005-0.097-0.013-0.193-0.02-0.29
	c-0.006-0.098-0.018-0.194-0.024-0.292c-0.007-0.088-0.018-0.176-0.025-0.264c-0.004-0.046-0.001-0.092-0.005-0.138
	c-0.006-0.064-0.02-0.125-0.026-0.188c-0.007-0.078-0.007-0.159-0.015-0.236c-0.013-0.125-0.028-0.25-0.042-0.375
	c-0.02-0.158-0.031-0.315-0.053-0.473c-0.014-0.099-0.031-0.196-0.045-0.294c-0.016-0.092-0.033-0.183-0.049-0.275
	c-0.016-0.095-0.035-0.189-0.052-0.284c-0.007-0.041-0.009-0.083-0.017-0.124c-0.006-0.04-0.019-0.079-0.026-0.119
	c-0.021-0.119-0.042-0.238-0.065-0.356c-0.041-0.214-0.08-0.428-0.128-0.64c-0.032-0.142-0.062-0.284-0.096-0.425
	c-0.022-0.094-0.05-0.186-0.073-0.28c-0.021-0.085-0.049-0.17-0.07-0.256c-0.013-0.045-0.018-0.091-0.03-0.137
	c-0.012-0.044-0.029-0.086-0.042-0.13c-0.022-0.086-0.043-0.174-0.067-0.26c-0.036-0.127-0.073-0.253-0.11-0.379
	c-0.064-0.216-0.133-0.43-0.203-0.643c-0.04-0.123-0.082-0.245-0.125-0.368c-0.031-0.087-0.065-0.173-0.098-0.261
	c-0.014-0.041-0.022-0.082-0.037-0.122c-0.014-0.039-0.033-0.074-0.047-0.112c-0.033-0.09-0.062-0.182-0.098-0.271
	c-0.033-0.089-0.062-0.18-0.098-0.269c-0.055-0.137-0.112-0.272-0.169-0.409c-0.083-0.2-0.173-0.396-0.261-0.594
	c-0.049-0.109-0.1-0.217-0.15-0.325c-0.017-0.038-0.029-0.077-0.047-0.115c-0.018-0.039-0.041-0.075-0.059-0.114
	c-0.039-0.082-0.074-0.166-0.113-0.248c-0.043-0.087-0.08-0.177-0.124-0.264c-0.044-0.089-0.087-0.179-0.132-0.268
	c-0.073-0.144-0.155-0.282-0.232-0.424c-0.092-0.171-0.193-0.338-0.289-0.507c-0.035-0.062-0.062-0.126-0.096-0.188
	c-0.023-0.04-0.052-0.076-0.075-0.115c-0.046-0.078-0.087-0.157-0.134-0.234c-0.049-0.082-0.094-0.166-0.143-0.247
	c-0.051-0.083-0.1-0.167-0.15-0.248c-0.055-0.087-0.108-0.172-0.164-0.257c-0.09-0.141-0.191-0.273-0.285-0.412
	c-0.09-0.132-0.186-0.26-0.277-0.391c-0.078-0.113-0.15-0.23-0.23-0.342c-0.055-0.076-0.107-0.155-0.162-0.23
	c-0.059-0.08-0.115-0.16-0.175-0.239c-0.058-0.077-0.116-0.153-0.175-0.229c-0.062-0.081-0.129-0.159-0.192-0.238
	c-0.099-0.124-0.21-0.24-0.312-0.362c-0.045-0.055-0.081-0.113-0.126-0.167c-0.046-0.053-0.097-0.099-0.141-0.152
	c-0.106-0.124-0.202-0.254-0.31-0.375c-0.064-0.073-0.127-0.148-0.192-0.22c-0.065-0.073-0.134-0.146-0.2-0.218
	c-0.064-0.07-0.133-0.137-0.197-0.207c-0.07-0.073-0.145-0.143-0.215-0.215c-0.09-0.093-0.189-0.179-0.281-0.271
	c-0.115-0.116-0.227-0.235-0.344-0.348c-0.121-0.116-0.234-0.24-0.357-0.354c-0.072-0.067-0.145-0.133-0.217-0.2
	c-0.074-0.066-0.149-0.129-0.223-0.194c-0.07-0.062-0.145-0.12-0.215-0.181c-0.074-0.064-0.152-0.125-0.229-0.188
	c-0.029-0.025-0.055-0.054-0.084-0.079c-0.052-0.042-0.106-0.077-0.157-0.119C42.4,5.835,42.248,5.702,42.09,5.576
	c-0.124-0.098-0.245-0.201-0.371-0.297c-0.079-0.059-0.16-0.116-0.238-0.174c-0.078-0.057-0.158-0.11-0.236-0.166
	c-0.074-0.054-0.152-0.104-0.227-0.157c-0.037-0.026-0.068-0.056-0.104-0.081c-0.038-0.026-0.079-0.047-0.118-0.074
	C40.703,4.563,40.612,4.5,40.52,4.438c-0.184-0.125-0.366-0.25-0.553-0.37c-0.123-0.077-0.242-0.155-0.365-0.23
	c-0.082-0.05-0.166-0.096-0.249-0.145c-0.079-0.047-0.161-0.09-0.241-0.137C39.073,3.532,39.039,3.505,39,3.482
	c-0.039-0.021-0.078-0.038-0.117-0.06c-0.081-0.047-0.162-0.097-0.244-0.143c-0.11-0.062-0.221-0.123-0.332-0.183
	c-0.201-0.108-0.403-0.213-0.606-0.315c-0.113-0.057-0.228-0.113-0.343-0.168c-0.082-0.04-0.168-0.076-0.251-0.115
	c-0.04-0.019-0.077-0.043-0.118-0.062c-0.039-0.018-0.08-0.03-0.119-0.048c-0.084-0.039-0.166-0.081-0.25-0.119
	c-0.09-0.041-0.179-0.084-0.27-0.124c-0.131-0.058-0.265-0.11-0.396-0.165c-0.203-0.084-0.41-0.161-0.615-0.239
	c-0.107-0.042-0.217-0.081-0.325-0.121c-0.041-0.016-0.079-0.036-0.12-0.051c-0.04-0.014-0.081-0.023-0.121-0.037
	c-0.088-0.032-0.174-0.067-0.263-0.098s-0.178-0.066-0.267-0.097c-0.097-0.032-0.192-0.067-0.289-0.098
	c-0.15-0.048-0.304-0.087-0.455-0.133c-0.119-0.035-0.237-0.071-0.356-0.104c-0.078-0.022-0.159-0.037-0.237-0.059
	c-0.06-0.016-0.116-0.04-0.176-0.056c-0.042-0.012-0.084-0.017-0.127-0.028c-0.088-0.023-0.177-0.051-0.266-0.074
	c-0.092-0.023-0.184-0.051-0.276-0.073c-0.095-0.022-0.188-0.048-0.281-0.069c-0.102-0.023-0.204-0.045-0.306-0.067
	c-0.158-0.034-0.32-0.055-0.479-0.086c-0.117-0.023-0.235-0.044-0.353-0.064c-0.043-0.008-0.082-0.021-0.125-0.029
	c-0.041-0.007-0.081-0.008-0.122-0.015c-0.097-0.017-0.192-0.038-0.288-0.053c-0.094-0.015-0.187-0.034-0.28-0.048
	c-0.093-0.014-0.186-0.03-0.278-0.043c-0.098-0.013-0.195-0.027-0.293-0.039c-0.104-0.014-0.209-0.022-0.312-0.034
	c-0.078-0.009-0.156-0.013-0.236-0.021c-0.086-0.009-0.176-0.011-0.263-0.019c-0.06-0.006-0.116-0.019-0.176-0.024
	c-0.044-0.004-0.087-0.001-0.132-0.005c-0.085-0.007-0.17-0.019-0.256-0.025c-0.106-0.008-0.212-0.021-0.318-0.027
	c-0.095-0.005-0.19-0.013-0.286-0.018c-0.093-0.005-0.186-0.009-0.279-0.012c-0.099-0.004-0.198-0.004-0.296-0.007
	c-0.103-0.002-0.206,0.001-0.309,0c-0.083-0.001-0.167,0.002-0.25,0.002C26.094,0.007,26.048,0,26,0
	c-0.045,0-0.088,0.007-0.134,0.007c-0.093,0-0.187-0.003-0.281-0.001c-0.084,0.001-0.169-0.003-0.253-0.001
	c-0.111,0.002-0.223,0.002-0.333,0.006c-0.097,0.003-0.193,0.009-0.29,0.014c-0.091,0.004-0.183,0.013-0.274,0.018
	c-0.098,0.006-0.195,0.017-0.293,0.024c-0.096,0.007-0.191,0.019-0.288,0.027c-0.041,0.003-0.081,0.001-0.121,0.004
	c-0.059,0.006-0.117,0.019-0.176,0.024c-0.083,0.008-0.168,0.008-0.252,0.017c-0.091,0.01-0.183,0.016-0.274,0.026
	c-0.083,0.009-0.167,0.016-0.25,0.025c-0.112,0.015-0.223,0.028-0.334,0.043c-0.096,0.013-0.19,0.031-0.286,0.045
	c-0.088,0.014-0.176,0.032-0.264,0.046c-0.095,0.016-0.189,0.036-0.284,0.052c-0.042,0.007-0.084,0.009-0.127,0.016
	c-0.043,0.008-0.083,0.021-0.126,0.029c-0.113,0.02-0.227,0.04-0.34,0.062C20.846,0.52,20.672,0.545,20.5,0.582
	c-0.083,0.018-0.164,0.035-0.247,0.054c-0.107,0.024-0.214,0.052-0.321,0.078c-0.092,0.022-0.183,0.05-0.275,0.074
	c-0.086,0.022-0.172,0.049-0.258,0.071c-0.042,0.012-0.086,0.017-0.128,0.028c-0.06,0.016-0.116,0.04-0.175,0.056
	c-0.078,0.022-0.16,0.037-0.238,0.059c-0.116,0.033-0.231,0.066-0.347,0.101c-0.162,0.049-0.325,0.092-0.485,0.144
	c-0.082,0.026-0.162,0.056-0.244,0.083c-0.101,0.034-0.2,0.072-0.3,0.107c-0.085,0.03-0.168,0.065-0.253,0.095
	c-0.04,0.014-0.081,0.023-0.121,0.038c-0.041,0.015-0.08,0.035-0.121,0.051c-0.109,0.04-0.217,0.079-0.325,0.121
	c-0.203,0.077-0.407,0.153-0.607,0.235c-0.14,0.059-0.28,0.115-0.42,0.175c-0.081,0.036-0.159,0.075-0.24,0.112
	c-0.091,0.041-0.181,0.086-0.272,0.128c-0.036,0.017-0.074,0.028-0.11,0.045c-0.039,0.019-0.075,0.042-0.114,0.061
	c-0.085,0.04-0.172,0.077-0.256,0.117c-0.115,0.055-0.229,0.111-0.343,0.168c-0.202,0.102-0.402,0.207-0.602,0.313
	c-0.115,0.062-0.229,0.125-0.343,0.189c-0.079,0.044-0.156,0.092-0.235,0.138C13.081,3.443,13.04,3.46,13,3.482
	c-0.04,0.023-0.076,0.051-0.116,0.074c-0.078,0.045-0.157,0.087-0.234,0.134c-0.083,0.05-0.169,0.096-0.252,0.146
	c-0.123,0.075-0.243,0.153-0.364,0.23c-0.187,0.12-0.368,0.244-0.551,0.368c-0.094,0.063-0.187,0.128-0.28,0.193
	c-0.038,0.026-0.079,0.047-0.117,0.073c-0.036,0.025-0.067,0.055-0.104,0.081c-0.076,0.054-0.154,0.104-0.229,0.159
	c-0.077,0.055-0.155,0.106-0.231,0.163c-0.08,0.059-0.161,0.116-0.241,0.176c-0.126,0.096-0.247,0.199-0.372,0.297
	C9.752,5.701,9.6,5.835,9.444,5.964C9.394,6.006,9.338,6.04,9.288,6.083c-0.03,0.025-0.056,0.054-0.085,0.079
	C9.127,6.226,9.049,6.286,8.975,6.351C8.903,6.412,8.83,6.47,8.759,6.532C8.686,6.597,8.611,6.66,8.539,6.725
	C8.466,6.791,8.393,6.858,8.32,6.925C8.197,7.039,8.084,7.163,7.963,7.279c-0.117,0.114-0.23,0.234-0.346,0.35
	C7.526,7.719,7.429,7.804,7.34,7.896C7.269,7.968,7.194,8.039,7.124,8.113C7.058,8.182,6.99,8.25,6.925,8.32
	C6.858,8.392,6.792,8.464,6.727,8.537C6.661,8.609,6.598,8.685,6.533,8.758C6.426,8.879,6.329,9.01,6.224,9.133
	C6.179,9.187,6.128,9.232,6.083,9.286C6.037,9.341,5.999,9.401,5.954,9.457c-0.1,0.12-0.208,0.233-0.305,0.354
	c-0.065,0.081-0.131,0.161-0.195,0.242c-0.06,0.076-0.118,0.153-0.176,0.23c-0.059,0.078-0.115,0.158-0.173,0.237
	c-0.056,0.075-0.107,0.154-0.163,0.231c-0.08,0.111-0.153,0.229-0.231,0.342c-0.093,0.133-0.19,0.263-0.281,0.397
	c-0.09,0.134-0.189,0.263-0.277,0.399c-0.057,0.087-0.112,0.175-0.168,0.263c-0.052,0.082-0.1,0.166-0.15,0.248
	c-0.05,0.081-0.095,0.165-0.144,0.247c-0.046,0.077-0.088,0.157-0.133,0.234c-0.023,0.04-0.051,0.075-0.074,0.115
	c-0.035,0.062-0.062,0.126-0.096,0.188c-0.099,0.172-0.201,0.342-0.295,0.517C3.019,13.837,2.94,13.97,2.87,14.107
	c-0.046,0.091-0.09,0.184-0.136,0.276C2.69,14.47,2.652,14.56,2.61,14.647c-0.039,0.082-0.074,0.166-0.113,0.248
	c-0.019,0.039-0.042,0.075-0.06,0.114c-0.018,0.038-0.03,0.077-0.047,0.115c-0.05,0.108-0.101,0.216-0.149,0.325
	c-0.089,0.201-0.18,0.401-0.265,0.604c-0.054,0.13-0.109,0.259-0.161,0.39c-0.036,0.092-0.067,0.185-0.102,0.277
	c-0.034,0.09-0.063,0.182-0.097,0.271c-0.014,0.038-0.033,0.074-0.047,0.112c-0.015,0.041-0.023,0.082-0.038,0.122
	c-0.031,0.087-0.066,0.173-0.097,0.261c-0.043,0.123-0.085,0.246-0.126,0.369c-0.071,0.216-0.14,0.433-0.205,0.651
	c-0.036,0.119-0.07,0.239-0.104,0.358c-0.025,0.089-0.047,0.181-0.071,0.271c-0.012,0.044-0.03,0.086-0.042,0.13
	c-0.012,0.045-0.018,0.091-0.03,0.137c-0.022,0.086-0.048,0.17-0.07,0.256c-0.023,0.094-0.052,0.186-0.074,0.28
	c-0.034,0.142-0.064,0.286-0.096,0.428c-0.047,0.215-0.086,0.431-0.128,0.646c-0.022,0.111-0.042,0.224-0.062,0.335
	c-0.008,0.044-0.022,0.087-0.03,0.131c-0.007,0.041-0.008,0.083-0.016,0.124c-0.016,0.095-0.036,0.189-0.052,0.284
	c-0.015,0.092-0.034,0.183-0.048,0.275c-0.015,0.098-0.032,0.195-0.045,0.294c-0.022,0.16-0.035,0.32-0.054,0.479
	c-0.014,0.121-0.028,0.242-0.041,0.363c-0.008,0.084-0.009,0.17-0.017,0.254c-0.006,0.059-0.019,0.116-0.024,0.176
	c-0.004,0.042-0.001,0.084-0.005,0.127c-0.007,0.091-0.019,0.183-0.026,0.275c-0.007,0.097-0.019,0.194-0.025,0.292
	c-0.006,0.096-0.014,0.193-0.02,0.29c-0.005,0.099-0.009,0.196-0.013,0.295c-0.006,0.169,0,0.339-0.002,0.508
	c-0.002,0.115-0.002,0.23-0.002,0.345C0.007,25.906,0,25.949,0,25.994s0.007,0.088,0.007,0.133c0,0.092-0.003,0.185-0.001,0.275
	c0.001,0.095-0.002,0.189,0,0.283c0.002,0.098,0.002,0.196,0.006,0.294c0.004,0.1,0.008,0.198,0.013,0.296
	c0.005,0.098,0.013,0.193,0.02,0.29c0.005,0.091,0.016,0.181,0.022,0.271c0.005,0.08,0.02,0.16,0.026,0.24
	c0.005,0.062,0.001,0.122,0.007,0.184c0.005,0.059,0.018,0.116,0.024,0.176c0.008,0.084,0.008,0.17,0.017,0.254
	c0.009,0.088,0.015,0.176,0.024,0.264c0.011,0.096,0.019,0.191,0.031,0.286c0.012,0.097,0.024,0.194,0.038,0.29
	c0.014,0.1,0.031,0.198,0.046,0.297c0.014,0.092,0.033,0.182,0.048,0.273c0.016,0.096,0.036,0.19,0.052,0.287
	c0.007,0.04,0.008,0.08,0.015,0.121c0.008,0.045,0.022,0.089,0.03,0.134c0.02,0.112,0.04,0.224,0.062,0.335
	c0.032,0.166,0.056,0.336,0.091,0.504c0.021,0.095,0.042,0.189,0.063,0.283c0.021,0.095,0.047,0.188,0.069,0.283
	c0.023,0.095,0.051,0.188,0.075,0.283c0.021,0.086,0.047,0.169,0.07,0.254c0.012,0.045,0.018,0.092,0.03,0.137
	c0.004,0.015,0.01,0.029,0.014,0.043c0.021,0.081,0.048,0.158,0.07,0.237c0.045,0.161,0.086,0.323,0.134,0.482
	c0.047,0.157,0.088,0.314,0.138,0.47c0.03,0.093,0.063,0.185,0.094,0.277c0.03,0.089,0.065,0.178,0.096,0.267
	c0.032,0.09,0.068,0.179,0.1,0.269c0.014,0.039,0.022,0.078,0.037,0.117c0.005,0.016,0.012,0.028,0.018,0.043
	c0.023,0.062,0.044,0.127,0.068,0.189c0.028,0.075,0.061,0.148,0.09,0.225c0.077,0.2,0.151,0.401,0.233,0.6
	c0.057,0.136,0.111,0.273,0.17,0.408c0.038,0.087,0.082,0.172,0.12,0.259c0.038,0.085,0.081,0.168,0.12,0.253
	c0.018,0.039,0.031,0.08,0.049,0.119c0.008,0.019,0.02,0.036,0.028,0.055c0.03,0.064,0.057,0.129,0.087,0.193
	c0.019,0.038,0.039,0.075,0.057,0.114c0.058,0.12,0.117,0.24,0.177,0.359c0.1,0.199,0.203,0.396,0.308,0.593
	c0.062,0.113,0.125,0.229,0.188,0.341c0.045,0.081,0.094,0.159,0.14,0.239c0.021,0.038,0.038,0.078,0.06,0.117
	c0.014,0.024,0.032,0.047,0.046,0.071c0.029,0.05,0.055,0.101,0.084,0.15c0.026,0.044,0.053,0.087,0.079,0.132
	c0.048,0.08,0.092,0.162,0.142,0.242c0.077,0.127,0.158,0.252,0.238,0.376c0.117,0.183,0.24,0.362,0.362,0.542
	c0.065,0.096,0.131,0.191,0.197,0.285c0.025,0.037,0.045,0.077,0.071,0.115c0.022,0.029,0.047,0.057,0.069,0.088
	c0.021,0.029,0.038,0.061,0.059,0.089c0.037,0.052,0.072,0.103,0.109,0.153c0.056,0.077,0.108,0.158,0.166,0.234
	c0.058,0.078,0.113,0.158,0.171,0.235c0.098,0.129,0.203,0.251,0.303,0.379c0.122,0.154,0.252,0.303,0.378,0.454
	c0.044,0.054,0.08,0.111,0.124,0.164c0.027,0.033,0.059,0.061,0.086,0.092c0.062,0.074,0.121,0.15,0.183,0.222
	c0.061,0.071,0.119,0.145,0.181,0.215c0.065,0.074,0.129,0.149,0.195,0.222c0.065,0.072,0.131,0.145,0.198,0.216
	c0.115,0.124,0.239,0.238,0.357,0.36c0.11,0.113,0.227,0.224,0.339,0.336c0.096,0.097,0.186,0.199,0.283,0.293
	c0.071,0.069,0.139,0.141,0.21,0.209c0.069,0.066,0.136,0.133,0.206,0.198c0.072,0.066,0.146,0.133,0.219,0.2
	c0.072,0.064,0.146,0.127,0.219,0.191c0.122,0.107,0.253,0.205,0.377,0.31c0.053,0.046,0.099,0.096,0.152,0.141
	c0.056,0.047,0.116,0.085,0.171,0.132c0.123,0.102,0.239,0.211,0.363,0.311c0.078,0.062,0.155,0.126,0.233,0.188
	c0.076,0.059,0.152,0.117,0.229,0.175c0.079,0.06,0.159,0.116,0.239,0.175c0.075,0.056,0.154,0.107,0.23,0.162
	c0.07,0.051,0.143,0.099,0.215,0.148c0.132,0.094,0.267,0.184,0.401,0.274c0.18,0.122,0.352,0.256,0.534,0.374
	c0.083,0.054,0.167,0.107,0.251,0.16c0.082,0.051,0.166,0.1,0.249,0.15c0.081,0.049,0.165,0.094,0.247,0.143
	c0.058,0.033,0.115,0.067,0.173,0.101c0.208,0.123,0.419,0.235,0.629,0.353c0.225,0.123,0.443,0.258,0.671,0.375
	c0.087,0.045,0.176,0.086,0.263,0.129c0.087,0.044,0.176,0.082,0.264,0.124c0.041,0.019,0.081,0.04,0.121,0.06
	c0.309,0.148,0.625,0.281,0.938,0.416c0.077,0.034,0.152,0.072,0.229,0.105c0.033,0.014,0.064,0.031,0.097,0.045
	c0.02,0.008,0.038,0.019,0.058,0.027c0.122,0.049,0.243,0.1,0.365,0.146c0.087,0.035,0.177,0.063,0.264,0.097l0.004,0.003
	c0.033,0.012,0.064,0.027,0.097,0.039c0.25,0.096,0.503,0.18,0.756,0.267c0.108,0.038,0.217,0.067,0.325,0.103
	c0.037,0.013,0.074,0.023,0.111,0.035c0.13,0.043,0.258,0.089,0.389,0.129c0.154,0.047,0.306,0.096,0.461,0.14
	c0.032,0.009,0.063,0.021,0.095,0.03h0.002c0.358,0.101,0.721,0.183,1.083,0.268c0.2,0.047,0.399,0.098,0.6,0.14
	c0.097,0.021,0.195,0.038,0.292,0.058c0.031,0.006,0.062,0.014,0.093,0.021c0.056,0.011,0.111,0.026,0.167,0.037
	c0.316,0.059,0.635,0.101,0.953,0.147c0.241,0.035,0.48,0.077,0.722,0.106c0.198,0.024,0.396,0.047,0.595,0.066
	c0.795,0.079,1.591,0.126,2.388,0.131C25.9,51.994,25.942,52,25.984,52c0.005,0,0.011,0,0.016,0s0.011,0,0.016,0
	c0.043,0,0.085-0.007,0.128-0.007c0.147-0.001,0.294-0.016,0.441-0.02c0.522-0.011,1.043-0.026,1.561-0.068
	c0.118-0.01,0.236-0.028,0.355-0.039c0.008-0.001,0.017-0.003,0.024-0.003c0.2-0.021,0.4-0.043,0.601-0.067
	c0.16-0.02,0.32-0.036,0.48-0.059c0.246-0.034,0.492-0.072,0.737-0.113c0.152-0.026,0.304-0.054,0.456-0.082
	c0.057-0.011,0.111-0.026,0.168-0.037c0.018-0.004,0.037-0.009,0.057-0.013c0.019-0.004,0.037-0.007,0.057-0.011
	c0.082-0.017,0.166-0.031,0.248-0.048c0.027-0.006,0.056-0.011,0.084-0.017c0.08-0.017,0.16-0.028,0.24-0.046
	c0.246-0.055,0.488-0.119,0.732-0.181c0.217-0.055,0.434-0.11,0.649-0.171h0.002c0.032-0.01,0.063-0.021,0.095-0.03
	c0.109-0.031,0.219-0.062,0.326-0.093c0.263-0.079,0.523-0.165,0.783-0.252c0.061-0.021,0.121-0.042,0.181-0.062
	c0.252-0.086,0.503-0.172,0.753-0.266c0.032-0.012,0.063-0.027,0.096-0.039l0.004-0.003c0.085-0.031,0.171-0.059,0.254-0.091
	c0.025-0.011,0.051-0.018,0.075-0.027c0.101-0.04,0.2-0.084,0.302-0.126c0.019-0.008,0.037-0.018,0.056-0.026
	c0.032-0.013,0.062-0.029,0.095-0.043c0.08-0.033,0.157-0.073,0.237-0.107l0.005-0.003c0.312-0.134,0.623-0.266,0.93-0.413
	c0.03-0.015,0.061-0.029,0.09-0.043c0.054-0.025,0.108-0.047,0.161-0.073c0.045-0.022,0.089-0.045,0.134-0.067
	c0.088-0.043,0.176-0.084,0.264-0.129c0.229-0.117,0.446-0.252,0.67-0.375c0.198-0.11,0.398-0.214,0.594-0.329
	c0.033-0.021,0.068-0.038,0.102-0.058c0.039-0.022,0.074-0.047,0.11-0.068c0.081-0.048,0.163-0.092,0.244-0.141
	c0.082-0.051,0.167-0.1,0.249-0.15c0.084-0.053,0.168-0.106,0.251-0.16c0.183-0.118,0.354-0.252,0.534-0.374
	c0.134-0.091,0.27-0.181,0.4-0.274c0.072-0.05,0.145-0.098,0.214-0.148c0.077-0.055,0.157-0.107,0.233-0.163
	c0.078-0.058,0.158-0.114,0.236-0.174c0.077-0.058,0.153-0.116,0.229-0.175c0.079-0.062,0.155-0.125,0.233-0.188
	c0.124-0.1,0.24-0.209,0.363-0.311c0.055-0.047,0.115-0.085,0.172-0.132c0.031-0.027,0.059-0.058,0.092-0.085
	c0.073-0.062,0.148-0.121,0.221-0.184c0.071-0.062,0.146-0.12,0.216-0.182c0.073-0.064,0.146-0.127,0.219-0.191
	c0.073-0.067,0.146-0.134,0.219-0.2c0.069-0.065,0.138-0.132,0.206-0.198c0.072-0.068,0.141-0.14,0.21-0.209
	c0.097-0.094,0.187-0.195,0.281-0.291c0.096-0.095,0.198-0.185,0.292-0.281c0.068-0.07,0.141-0.139,0.209-0.21
	c0.066-0.069,0.134-0.138,0.199-0.208c0.064-0.071,0.13-0.143,0.195-0.213c0.066-0.073,0.13-0.149,0.195-0.224
	c0.062-0.07,0.12-0.144,0.182-0.215c0.062-0.072,0.121-0.147,0.183-0.222c0.027-0.031,0.059-0.059,0.086-0.092
	c0.043-0.052,0.079-0.107,0.121-0.16c0.104-0.126,0.219-0.246,0.321-0.374c0.062-0.078,0.126-0.154,0.188-0.233
	c0.059-0.076,0.118-0.154,0.177-0.232c0.058-0.076,0.112-0.153,0.169-0.23c0.058-0.077,0.111-0.158,0.167-0.236
	c0.054-0.075,0.104-0.152,0.157-0.228c0.025-0.036,0.055-0.067,0.08-0.103c0.026-0.038,0.047-0.078,0.072-0.115
	c0.064-0.092,0.129-0.185,0.193-0.278c0.096-0.143,0.199-0.279,0.293-0.424c0.054-0.083,0.107-0.168,0.16-0.252
	c0.053-0.082,0.1-0.167,0.151-0.251c0.048-0.078,0.092-0.16,0.139-0.238c0.048-0.08,0.091-0.163,0.139-0.243
	c0.022-0.039,0.05-0.073,0.073-0.112c0.021-0.039,0.037-0.079,0.06-0.117c0.046-0.08,0.095-0.158,0.14-0.239
	c0.062-0.11,0.123-0.222,0.184-0.333c0.078-0.145,0.162-0.287,0.237-0.434c0.044-0.087,0.085-0.176,0.129-0.264
	c0.044-0.087,0.082-0.178,0.124-0.265c0.039-0.079,0.072-0.161,0.109-0.24c0.02-0.041,0.044-0.077,0.062-0.12
	c0.02-0.039,0.031-0.08,0.05-0.119c0.039-0.085,0.082-0.168,0.12-0.253c0.039-0.087,0.082-0.172,0.12-0.259
	c0.058-0.133,0.11-0.266,0.167-0.398c0.057-0.139,0.116-0.277,0.172-0.418c0.033-0.088,0.062-0.178,0.096-0.265
	c0.035-0.091,0.064-0.182,0.098-0.272c0.014-0.037,0.033-0.072,0.047-0.111s0.022-0.078,0.036-0.117
	c0.032-0.09,0.068-0.179,0.101-0.269c0.03-0.089,0.065-0.178,0.096-0.267c0.031-0.092,0.064-0.184,0.094-0.275
	c0.049-0.152,0.09-0.308,0.137-0.461c0.037-0.129,0.074-0.258,0.111-0.387c0.024-0.084,0.044-0.172,0.066-0.257
	c0.012-0.044,0.03-0.086,0.042-0.13c0.013-0.045,0.018-0.092,0.03-0.137c0.021-0.085,0.048-0.168,0.07-0.254
	c0.023-0.095,0.051-0.188,0.074-0.283c0.022-0.096,0.048-0.188,0.069-0.283c0.021-0.094,0.042-0.188,0.062-0.281
	c0.035-0.164,0.058-0.332,0.091-0.498c0.023-0.119,0.044-0.239,0.066-0.359c0.007-0.04,0.02-0.078,0.025-0.117
	c0.008-0.041,0.009-0.081,0.016-0.121c0.017-0.097,0.037-0.191,0.053-0.287c0.015-0.092,0.033-0.182,0.047-0.273
	c0.016-0.099,0.033-0.197,0.047-0.297c0.014-0.096,0.025-0.193,0.037-0.29c0.012-0.093,0.021-0.187,0.031-0.28
	c0.01-0.092,0.017-0.184,0.026-0.275c0.007-0.078,0.008-0.158,0.015-0.236c0.007-0.063,0.021-0.125,0.025-0.188
	c0.006-0.065,0.003-0.13,0.008-0.194c0.007-0.077,0.02-0.153,0.025-0.229c0.007-0.09,0.018-0.18,0.022-0.271
	c0.006-0.097,0.015-0.192,0.02-0.29s0.009-0.196,0.013-0.296c0.004-0.098,0.004-0.196,0.006-0.294c0.002-0.092,0-0.184,0.001-0.276
	C51.996,26.313,51.993,26.216,51.993,26.12z M48.771,33.144c-0.037,0.117-0.074,0.234-0.113,0.351
	c-0.051,0.157-0.104,0.314-0.158,0.469c-0.025,0.069-0.051,0.139-0.076,0.208c-0.115,0.312-0.236,0.624-0.363,0.931
	c-0.007,0.018-0.014,0.034-0.021,0.053c-0.061,0.145-0.119,0.291-0.183,0.436c-0.063,0.144-0.13,0.286-0.196,0.429
	c-0.035,0.077-0.074,0.153-0.109,0.229c-0.118,0.246-0.244,0.488-0.369,0.73l-11.51-7.466l13.621,1.677
	c-0.043,0.194-0.085,0.388-0.132,0.579c-0.026,0.104-0.054,0.209-0.081,0.313c-0.065,0.244-0.134,0.488-0.207,0.73
	C48.84,32.923,48.807,33.033,48.771,33.144z M43.84,41.833c-0.131,0.147-0.264,0.293-0.396,0.437
	c-0.172,0.184-0.338,0.37-0.516,0.549c-0.254,0.254-0.521,0.494-0.785,0.737l-8.258-10.948l12.219,6.23
	c-0.124,0.195-0.24,0.396-0.37,0.586c-0.118,0.174-0.245,0.34-0.368,0.51c-0.103,0.143-0.21,0.283-0.316,0.424
	c-0.213,0.283-0.424,0.566-0.649,0.84C44.219,41.414,44.027,41.623,43.84,41.833z M9.104,42.864
	c-0.029-0.029-0.057-0.06-0.086-0.089c-0.005-0.006-0.011-0.012-0.017-0.018c-0.465-0.471-0.91-0.961-1.335-1.469
	c-0.003-0.004-0.007-0.009-0.011-0.014c-0.076-0.091-0.146-0.186-0.22-0.278c-0.042-0.051-0.08-0.104-0.121-0.155
	c-0.334-0.42-0.659-0.848-0.965-1.29c-0.041-0.06-0.08-0.122-0.12-0.182C6.111,39.197,6,39.019,5.888,38.842l12.228-6.234
	L9.857,43.557c-0.208-0.19-0.424-0.37-0.625-0.568c-0.009-0.008-0.019-0.018-0.027-0.025c-0.02-0.02-0.04-0.038-0.06-0.058
	C9.131,42.892,9.118,42.878,9.104,42.864z M3.728,34.582c-0.063-0.162-0.121-0.328-0.181-0.492
	c-0.042-0.117-0.087-0.235-0.128-0.354c-0.067-0.196-0.128-0.395-0.19-0.593c-0.062-0.194-0.125-0.388-0.181-0.582
	c-0.009-0.032-0.019-0.063-0.028-0.095c-0.089-0.32-0.169-0.643-0.245-0.964c-0.021-0.091-0.042-0.181-0.062-0.271
	c-0.003-0.015-0.006-0.026-0.009-0.041l13.624-1.678l-11.515,7.47c-0.052-0.1-0.104-0.199-0.154-0.299
	c-0.148-0.295-0.293-0.59-0.43-0.891c-0.01-0.022-0.02-0.046-0.03-0.068c-0.085-0.191-0.164-0.387-0.244-0.581
	C3.879,34.957,3.8,34.771,3.728,34.582z M3.229,18.842c0.001-0.006,0.004-0.012,0.006-0.018c0.104-0.333,0.216-0.665,0.336-0.994
	l0-0.001c0.119-0.325,0.245-0.648,0.377-0.967c0.003-0.008,0.007-0.016,0.01-0.025C4,16.738,4.042,16.64,4.083,16.542
	c0.093-0.216,0.19-0.43,0.29-0.643c0.022-0.048,0.047-0.096,0.07-0.144c0.12-0.252,0.249-0.499,0.377-0.747l11.509,7.466
	L2.712,20.798c0.067-0.305,0.134-0.609,0.214-0.911c0.065-0.243,0.132-0.485,0.205-0.726C3.163,19.055,3.196,18.949,3.229,18.842z
	 M12.571,6.259c0.024-0.017,0.048-0.032,0.072-0.048c0.175-0.118,0.354-0.23,0.533-0.343c0.285-0.182,0.574-0.358,0.867-0.527
	c0.125-0.072,0.249-0.147,0.375-0.218c0.653-0.362,1.319-0.687,1.994-0.984c0.036-0.016,0.073-0.031,0.109-0.046
	c0.104-0.045,0.21-0.083,0.315-0.126l4.017,13.117L11.501,7.048c0.213-0.163,0.425-0.326,0.644-0.481
	C12.287,6.464,12.426,6.358,12.571,6.259z M35.582,4.137c0.678,0.297,1.346,0.623,2,0.986c0.128,0.072,0.253,0.147,0.38,0.221
	c0.29,0.169,0.575,0.343,0.857,0.521c0.188,0.12,0.376,0.237,0.56,0.361c0.016,0.01,0.029,0.019,0.044,0.028
	c0.149,0.102,0.292,0.211,0.438,0.316c0.217,0.154,0.427,0.315,0.638,0.477l-9.353,10.035l4.016-13.117
	c0.104,0.043,0.211,0.081,0.314,0.126C35.512,4.107,35.547,4.121,35.582,4.137z M44.285,10.645c0.277,0.329,0.531,0.675,0.789,1.018
	c0.192,0.256,0.393,0.506,0.576,0.77c0.003,0.005,0.006,0.011,0.01,0.016c0.157,0.228,0.295,0.469,0.443,0.701l-12.219,6.23
	l8.258-10.949c0.205,0.188,0.418,0.364,0.615,0.559c0.249,0.246,0.479,0.507,0.717,0.763C43.748,10.047,44.027,10.336,44.285,10.645
	L44.285,10.645z M47.811,16.289c0.078,0.178,0.152,0.359,0.227,0.539l0.014,0.034c0.133,0.319,0.259,0.643,0.378,0.969
	c0.046,0.126,0.095,0.252,0.14,0.379c0.071,0.209,0.137,0.421,0.203,0.632c0.033,0.107,0.066,0.213,0.098,0.319
	c0.076,0.25,0.146,0.502,0.213,0.755c0.037,0.14,0.074,0.28,0.109,0.421c0.033,0.139,0.063,0.279,0.095,0.418
	c0.003,0.014,0.006,0.027,0.009,0.041l-13.623,1.678l11.508-7.466c0.131,0.249,0.26,0.498,0.381,0.751
	c0.068,0.145,0.142,0.286,0.207,0.432C47.782,16.224,47.797,16.256,47.811,16.289L47.811,16.289z M49.857,26.723
	c0,0.035-0.002,0.07-0.004,0.105c-0.01,0.283-0.023,0.566-0.043,0.848c-0.015,0.213-0.029,0.427-0.049,0.64
	c-0.025,0.253-0.062,0.507-0.096,0.76l-13.374-3.082l13.374-3.081c0.033,0.253,0.07,0.505,0.095,0.758
	c0.021,0.213,0.035,0.428,0.05,0.643c0.02,0.282,0.033,0.565,0.043,0.85c0.002,0.034,0.004,0.067,0.004,0.101
	c0.008,0.244,0.017,0.487,0.017,0.729C49.874,26.236,49.865,26.479,49.857,26.723L49.857,26.723z M2.228,28.224
	c-0.048-0.515-0.072-1.032-0.086-1.55l0-0.006c-0.007-0.237-0.016-0.475-0.016-0.711c0.001-0.558,0.026-1.114,0.066-1.669
	c0.015-0.208,0.028-0.416,0.049-0.623c0.024-0.251,0.069-0.5,0.102-0.751l13.367,3.079L2.333,29.075
	C2.296,28.791,2.254,28.507,2.228,28.224z M20.227,2.838c0.024-0.006,0.048-0.011,0.072-0.017c0.683-0.168,1.369-0.303,2.057-0.411
	c0.064-0.009,0.127-0.02,0.191-0.029c0.128-0.019,0.256-0.036,0.384-0.053c0.175-0.022,0.351-0.047,0.525-0.066
	c0.49-0.054,0.979-0.074,1.469-0.097l-0.712,13.694L18.858,3.234c0.103-0.032,0.205-0.074,0.308-0.105
	c0.259-0.078,0.518-0.149,0.778-0.218C20.038,2.886,20.132,2.862,20.227,2.838z M30.842,28.007c-0.037,0.09-0.077,0.178-0.12,0.266
	c-0.015,0.032-0.03,0.065-0.046,0.099c-0.023,0.044-0.049,0.088-0.072,0.132c-0.033,0.06-0.066,0.12-0.102,0.178
	c-0.021,0.036-0.042,0.073-0.064,0.108c-0.049,0.078-0.104,0.155-0.157,0.231c-0.035,0.051-0.069,0.101-0.106,0.149l-0.008,0.01
	c-0.048,0.062-0.1,0.122-0.15,0.183s-0.101,0.122-0.154,0.181c-0.008,0.008-0.016,0.018-0.023,0.025
	c-0.048,0.051-0.098,0.102-0.147,0.15c-0.033,0.033-0.066,0.066-0.101,0.098c-0.016,0.016-0.031,0.03-0.047,0.045
	c-0.012,0.011-0.024,0.021-0.037,0.033c-0.017,0.015-0.033,0.029-0.051,0.043c-0.062,0.055-0.126,0.106-0.191,0.158
	c-0.036,0.029-0.072,0.059-0.109,0.086c-0.033,0.025-0.066,0.049-0.102,0.073c-0.088,0.062-0.175,0.124-0.266,0.181
	c-0.055,0.035-0.111,0.066-0.168,0.1c-0.015,0.009-0.029,0.017-0.044,0.024c-0.047,0.026-0.093,0.052-0.14,0.076
	c-0.034,0.019-0.068,0.036-0.102,0.053c-0.018,0.009-0.035,0.017-0.051,0.024c-0.082,0.039-0.164,0.076-0.247,0.11
	c-0.041,0.018-0.081,0.036-0.122,0.052c-0.037,0.014-0.072,0.027-0.107,0.04c-0.049,0.019-0.098,0.035-0.146,0.052
	c-0.044,0.014-0.089,0.027-0.133,0.04c-0.07,0.022-0.142,0.043-0.213,0.062c-0.022,0.005-0.043,0.012-0.064,0.016
	c-0.042,0.011-0.083,0.02-0.125,0.029c-0.071,0.015-0.141,0.029-0.212,0.042c-0.064,0.011-0.127,0.023-0.191,0.032
	c-0.125,0.018-0.251,0.029-0.379,0.038c-0.01,0.001-0.02,0.002-0.029,0.002c-0.053,0.003-0.105,0.003-0.157,0.004
	c-0.095,0.003-0.189,0.005-0.284,0.003c-0.02,0-0.039,0-0.059,0c-0.021-0.002-0.041-0.002-0.061-0.003
	c-0.045-0.002-0.091-0.007-0.137-0.01c-0.104-0.009-0.208-0.019-0.311-0.032c-0.072-0.01-0.143-0.023-0.214-0.035
	c-0.077-0.014-0.154-0.026-0.229-0.043c-0.009-0.002-0.018-0.004-0.027-0.006c-0.006,0-0.012-0.002-0.017-0.004
	c-0.044-0.01-0.087-0.021-0.13-0.033c-0.069-0.018-0.138-0.037-0.206-0.058c-0.048-0.015-0.096-0.028-0.144-0.045
	c-0.003-0.001-0.006-0.002-0.01-0.003c-0.093-0.031-0.184-0.066-0.274-0.104c-0.035-0.014-0.07-0.025-0.105-0.041l-0.013-0.005
	c-0.037-0.016-0.072-0.032-0.108-0.049c-0.075-0.034-0.149-0.07-0.222-0.108c-0.008-0.004-0.017-0.008-0.025-0.012
	c-0.064-0.034-0.128-0.068-0.19-0.104l-0.006-0.004c-0.075-0.043-0.148-0.089-0.221-0.135c-0.018-0.012-0.036-0.023-0.054-0.035
	c-0.04-0.027-0.08-0.054-0.119-0.081c-0.036-0.024-0.071-0.05-0.105-0.075c-0.031-0.023-0.062-0.047-0.092-0.07
	c-0.013-0.011-0.026-0.021-0.04-0.031c-0.068-0.055-0.136-0.109-0.202-0.167c-0.005-0.005-0.01-0.009-0.015-0.013
	c-0.047-0.041-0.094-0.086-0.14-0.129c-0.044-0.042-0.088-0.084-0.13-0.127c-0.032-0.033-0.065-0.065-0.097-0.099
	c-0.032-0.035-0.062-0.071-0.095-0.107c-0.026-0.03-0.052-0.061-0.078-0.091c-0.048-0.058-0.097-0.114-0.144-0.174
	c-0.06-0.078-0.116-0.158-0.172-0.239c-0.036-0.053-0.074-0.104-0.107-0.159c-0.042-0.064-0.081-0.134-0.12-0.202
	c-0.017-0.03-0.034-0.06-0.05-0.089c-0.027-0.049-0.055-0.098-0.08-0.146c-0.016-0.032-0.03-0.063-0.045-0.095
	c-0.042-0.089-0.083-0.178-0.121-0.269c-0.01-0.025-0.021-0.051-0.032-0.076c-0.006-0.014-0.011-0.028-0.017-0.043
	c-0.032-0.084-0.062-0.169-0.09-0.254c-0.001-0.005-0.003-0.009-0.004-0.014c-0.019-0.057-0.037-0.115-0.054-0.173l-0.003-0.009
	c-0.026-0.091-0.048-0.182-0.069-0.273c-0.005-0.023-0.011-0.047-0.016-0.071c-0.009-0.041-0.018-0.083-0.025-0.125
	c-0.004-0.023-0.009-0.046-0.013-0.07c-0.001-0.007-0.002-0.014-0.004-0.021c-0.011-0.066-0.021-0.134-0.03-0.2
	c-0.014-0.106-0.025-0.211-0.032-0.318l0-0.009c-0.003-0.049-0.005-0.098-0.007-0.147c0-0.022-0.001-0.044-0.001-0.066
	c-0.002-0.081-0.003-0.161-0.002-0.242c0-0.011,0-0.023,0-0.035c0.001-0.05,0.004-0.099,0.007-0.149
	c0.002-0.045,0.006-0.091,0.01-0.136c0.007-0.087,0.015-0.174,0.026-0.26c0.004-0.031,0.009-0.061,0.014-0.092
	c0.006-0.04,0.013-0.08,0.02-0.12c0.013-0.076,0.026-0.152,0.042-0.228c0.023-0.107,0.051-0.214,0.081-0.32l0-0.001
	c0.019-0.065,0.039-0.129,0.06-0.193c0.017-0.051,0.036-0.103,0.055-0.154c0.014-0.039,0.028-0.077,0.043-0.116
	c0.02-0.051,0.039-0.102,0.06-0.152c0.039-0.09,0.078-0.18,0.122-0.269c0.042-0.083,0.087-0.164,0.133-0.245
	c0.03-0.055,0.062-0.109,0.095-0.162c0.012-0.02,0.023-0.039,0.036-0.059c0.004-0.006,0.008-0.012,0.012-0.019
	c0.174-0.273,0.373-0.53,0.594-0.767c0.01-0.011,0.021-0.021,0.032-0.033c0.107-0.112,0.22-0.216,0.334-0.318
	c0.205-0.181,0.424-0.345,0.656-0.493c0.113-0.071,0.226-0.142,0.343-0.204c0.014-0.007,0.029-0.016,0.043-0.023
	c0.157-0.074,0.318-0.14,0.481-0.198c0.113-0.045,0.221-0.1,0.336-0.137c0.078-0.025,0.154-0.056,0.233-0.077
	c0.037-0.01,0.074-0.022,0.111-0.031c0.044-0.01,0.088-0.018,0.132-0.028c0.301-0.065,0.607-0.105,0.915-0.117
	c0.011,0,0.021-0.002,0.032-0.003c0.051-0.001,0.103-0.001,0.154-0.001c0.076-0.001,0.15-0.001,0.226,0.001
	c0.318,0.012,0.635,0.053,0.945,0.123c0.032,0.007,0.065,0.012,0.098,0.02c0.062,0.015,0.122,0.034,0.183,0.051
	c0.054,0.015,0.105,0.036,0.158,0.053c0.136,0.042,0.263,0.106,0.395,0.16c0.144,0.059,0.289,0.105,0.43,0.177
	c0.126,0.065,0.25,0.135,0.372,0.21c0.247,0.156,0.481,0.332,0.698,0.526c0.038,0.033,0.078,0.062,0.114,0.096
	c0.031,0.029,0.062,0.06,0.093,0.09c0.047,0.047,0.094,0.095,0.139,0.144c0.004,0.003,0.006,0.006,0.01,0.009
	c0.223,0.239,0.424,0.499,0.6,0.774c0.029,0.048,0.06,0.096,0.088,0.145c0.008,0.014,0.016,0.027,0.024,0.042
	c0.005,0.008,0.011,0.018,0.015,0.027c0.027,0.047,0.053,0.096,0.079,0.144c0.03,0.056,0.06,0.112,0.088,0.169
	c0.037,0.078,0.072,0.156,0.106,0.234c0.014,0.033,0.025,0.067,0.039,0.101c0.033,0.083,0.064,0.166,0.094,0.25l0.008,0.023
	c0.016,0.049,0.03,0.098,0.046,0.148c0.022,0.074,0.044,0.147,0.063,0.222c0.011,0.043,0.022,0.086,0.033,0.129
	c0.002,0.011,0.005,0.021,0.007,0.032c0.015,0.069,0.026,0.139,0.038,0.208c0.014,0.075,0.027,0.149,0.038,0.225
	c0.013,0.094,0.021,0.189,0.028,0.284c0.007,0.075,0.014,0.149,0.018,0.223c0.001,0.04,0,0.08,0.001,0.12
	c0.001,0.066,0,0.132-0.003,0.199c0,0.057,0,0.114-0.004,0.171c0,0.024-0.004,0.047-0.005,0.072
	c-0.008,0.107-0.019,0.214-0.032,0.32c-0.004,0.026-0.006,0.053-0.01,0.079c-0.008,0.051-0.017,0.102-0.025,0.153
	c-0.004,0.015-0.006,0.029-0.008,0.044c-0.01,0.044-0.02,0.089-0.027,0.134c-0.012,0.052-0.023,0.104-0.036,0.155
	c-0.011,0.044-0.021,0.086-0.033,0.129c-0.007,0.024-0.014,0.049-0.021,0.074c-0.016,0.056-0.033,0.111-0.052,0.166
	c-0.013,0.037-0.024,0.075-0.038,0.112c-0.008,0.022-0.016,0.045-0.023,0.067c-0.016,0.045-0.033,0.091-0.051,0.135
	C30.864,27.953,30.853,27.98,30.842,28.007L30.842,28.007z M32.824,3.126c0.107,0.032,0.212,0.075,0.318,0.108l-5.355,12.626
	L27.075,2.167c0.491,0.023,0.982,0.043,1.472,0.097c0.084,0.009,0.168,0.019,0.252,0.029c0.222,0.026,0.441,0.059,0.662,0.091
	c0.061,0.008,0.121,0.018,0.182,0.027c0.688,0.108,1.375,0.243,2.059,0.411c0.025,0.006,0.053,0.011,0.078,0.018
	c0.092,0.023,0.183,0.046,0.273,0.07C32.311,2.978,32.568,3.049,32.824,3.126z M7.821,10.527c0.228-0.267,0.469-0.522,0.708-0.779
	C8.76,9.5,8.984,9.247,9.225,9.008c0.042-0.041,0.087-0.079,0.129-0.12C9.516,8.73,9.69,8.584,9.856,8.431l8.26,10.949l-12.22-6.23
	c0.136-0.212,0.262-0.431,0.404-0.639c0.059-0.086,0.122-0.17,0.183-0.256c0.143-0.203,0.296-0.397,0.445-0.595
	c0.248-0.33,0.493-0.662,0.758-0.979C7.73,10.628,7.777,10.579,7.821,10.527z M20.854,34.904l-4.018,13.122
	c-0.182-0.075-0.364-0.148-0.543-0.228c-0.032-0.015-0.064-0.027-0.096-0.042c-0.301-0.136-0.597-0.282-0.892-0.431
	c-0.105-0.053-0.211-0.107-0.316-0.162c-0.208-0.107-0.417-0.214-0.622-0.327c-0.03-0.017-0.06-0.032-0.09-0.049
	c-0.375-0.212-0.739-0.438-1.101-0.669c-0.176-0.113-0.354-0.224-0.526-0.34c-0.071-0.048-0.144-0.092-0.214-0.141
	c-0.32-0.222-0.625-0.463-0.934-0.699L20.854,34.904z M21.472,49.428c-0.232-0.045-0.464-0.099-0.696-0.15
	c-0.145-0.033-0.289-0.063-0.433-0.099c-0.271-0.065-0.541-0.133-0.809-0.208c-0.025-0.007-0.05-0.016-0.076-0.022
	c-0.2-0.058-0.399-0.123-0.598-0.187l-0.005-0.001l5.358-12.634l0.713,13.702c-0.277-0.013-0.554-0.021-0.829-0.042
	c-0.072-0.006-0.145-0.009-0.217-0.016c-0.41-0.036-0.821-0.094-1.232-0.152c-0.015-0.002-0.031-0.004-0.046-0.006
	c-0.298-0.043-0.598-0.082-0.893-0.137C21.63,49.462,21.551,49.444,21.472,49.428z M27.074,49.829l0.713-13.702l5.358,12.634
	c-0.019,0.007-0.038,0.012-0.058,0.019c-0.428,0.133-0.858,0.256-1.293,0.365c-0.008,0.001-0.016,0.003-0.023,0.005
	c-0.222,0.056-0.447,0.104-0.674,0.154c-0.117,0.026-0.236,0.053-0.354,0.077c-0.344,0.07-0.69,0.13-1.038,0.186
	c-0.101,0.016-0.2,0.031-0.3,0.046c-0.07,0.011-0.141,0.02-0.209,0.028c-0.23,0.031-0.459,0.062-0.688,0.086
	c-0.013,0.002-0.026,0.004-0.04,0.006c-0.318,0.033-0.639,0.055-0.96,0.075C27.364,49.816,27.219,49.822,27.074,49.829z
	 M35.388,47.933c-0.074,0.032-0.151,0.057-0.226,0.088l-4.016-13.116l9.348,10.029c-0.143,0.107-0.28,0.221-0.424,0.326
	c-0.08,0.06-0.159,0.123-0.241,0.181c-0.093,0.066-0.184,0.136-0.278,0.201c-0.508,0.349-1.031,0.677-1.564,0.985
	c-0.016,0.011-0.033,0.021-0.05,0.031c-0.104,0.061-0.209,0.124-0.315,0.184c-0.544,0.303-1.103,0.582-1.67,0.843
	c-0.109,0.05-0.218,0.101-0.328,0.149C35.545,47.867,35.466,47.899,35.388,47.933z"/>
</svg>
