<?xml version="1.0" encoding="utf-8"?>
<!-- Generator: Adobe Illustrator 16.0.4, SVG Export Plug-In . SVG Version: 6.00 Build 0)  -->
<!DOCTYPE svg PUBLIC "-//W3C//DTD SVG 1.1//EN" "http://www.w3.org/Graphics/SVG/1.1/DTD/svg11.dtd">
<svg version="1.1" id="stomatal" xmlns="http://www.w3.org/2000/svg" xmlns:xlink="http://www.w3.org/1999/xlink" x="0px" y="0px"
	 width="52.004px" height="52px" viewBox="0 0 52.004 52" enable-background="new 0 0 52.004 52" xml:space="preserve">
<g>
	<g>
		<path fill-rule="evenodd" clip-rule="evenodd" fill="#FFFFFF" d="M49.992,26.499c0.03-0.241,0.108-0.49,0.258-0.768
			c2.12-3.908-0.652-9.021-3.459-11.93c-1.364-1.414-2.984-2.49-4.521-3.681c-1.821-1.413-3.842-2.432-6.042-3.213
			C32.779,5.685,30.504,5,26.858,5c-5.508,0-9.961,1.144-14.25,3.067c-3.535,1.585-6.417,4.462-9.001,7.473
			c-1.382,1.61-2.511,3.648-2.602,5.792c-0.038,0.893,0.124,2.014,0.427,2.857c0.326,0.91,0.984,1.479,1.236,2.31
			c-0.252,0.831-0.91,1.401-1.236,2.31c-0.303,0.844-0.465,1.965-0.427,2.858c0.091,2.144,1.22,4.181,2.602,5.791
			c2.585,3.012,5.466,5.888,9.001,7.474c4.289,1.924,8.742,3.067,14.25,3.067c3.646,0,5.921-0.685,9.369-1.909
			c2.2-0.781,4.221-1.799,6.042-3.212c1.537-1.19,3.157-2.268,4.521-3.681c2.807-2.909,5.579-8.022,3.459-11.931
			C50.101,26.989,50.022,26.741,49.992,26.499z M5.411,21.41c1.231-2.453,1.224-2.099,1.745-3.302
			c0.574,2.925,1.733,4.098,3.752,3.909c1.907-0.179,3.004-1.508,3.038-3.678c0.031-1.969-1.229-2.911-4.431-3.198
			c2.417-1.856,4.546-3.897,7.618-4.498c-0.14,2.83,0.427,3.831,2.461,4.408c1.384,0.393,2.981-0.258,3.675-1.496
			c0.731-1.304,0.254-2.733-1.542-4.36c2.396-0.673,4.673-0.451,7.104,0.047c-0.514,1.398-1.17,2.897,0.26,3.945
			c1.041,0.764,2.258,1.709,3.735,1.047c1.587-0.711,2.739-1.796,2.093-4.123c2.771,2.086,5.803,2.793,8.037,4.817
			c0.145,0.131,0.17,0.389,0.247,0.58c-2.536,1.675-3.052,3.13-1.793,4.979c1.64,2.407,3.757,1.162,5.79-0.063
			c-0.141,0.085,0.635,2.587,0.11,3.131c-0.764,0.792-3.615,0.602-4.634,0.375c-1.384-0.309-2.559-1.076-3.492-2.113
			c-4.575-5.078-10.442-6.643-16.956-5.057c-3.358,0.816-6.491,2.64-8.556,5.648c-0.436,0.635-1.052,1.085-1.743,1.224
			c-1.901,0.38-3.833,0.543-5.89,0.235C4.591,23.42,5.001,22.848,5.411,21.41z M34.895,26.499c-3.432,2.823-9.9,2.768-14.986,0
			C24.995,23.731,31.463,23.676,34.895,26.499z M47.201,32.574c-2.033-1.226-4.15-2.47-5.79-0.062
			c-1.259,1.848-0.743,3.303,1.793,4.979c-0.077,0.19-0.103,0.449-0.247,0.58c-2.234,2.023-5.266,2.73-8.037,4.817
			c0.646-2.328-0.506-3.413-2.093-4.123c-1.478-0.662-2.694,0.283-3.735,1.046c-1.43,1.049-0.773,2.548-0.26,3.946
			c-2.431,0.498-4.708,0.719-7.104,0.047c1.796-1.627,2.273-3.058,1.542-4.361c-0.693-1.237-2.291-1.888-3.675-1.495
			c-2.034,0.576-2.601,1.578-2.461,4.407c-3.072-0.601-5.202-2.642-7.618-4.497c3.203-0.287,4.462-1.23,4.431-3.198
			c-0.034-2.171-1.131-3.499-3.038-3.678c-2.019-0.189-3.178,0.984-3.752,3.909c-0.521-1.203-0.514-0.85-1.745-3.303
			c-0.41-1.437-0.82-2.009,0.63-2.457c2.057-0.308,3.988-0.145,5.89,0.236c0.691,0.138,1.307,0.588,1.743,1.224
			c2.065,3.008,5.198,4.831,8.556,5.648c6.513,1.585,12.38,0.021,16.956-5.057c0.934-1.037,2.108-1.806,3.492-2.114
			c1.019-0.227,3.87-0.417,4.634,0.375C47.836,29.987,47.061,32.489,47.201,32.574z"/>
	</g>
</g>
</svg>
